<mxfile host="65bd71144e">
    <diagram id="UmxPKM7viVwVUpL7xpUT" name="Page-1">
        <mxGraphModel dx="960" dy="691" grid="0" gridSize="10" guides="1" tooltips="1" connect="1" arrows="1" fold="1" page="0" pageScale="1" pageWidth="850" pageHeight="1100" background="#ffffff" math="0" shadow="1">
            <root>
                <mxCell id="0"/>
                <mxCell id="1" parent="0"/>
                <mxCell id="160" style="edgeStyle=none;html=1;entryX=0;entryY=0.7;entryDx=0;entryDy=0;strokeColor=#0000FF;strokeWidth=5;exitX=1.008;exitY=0.911;exitDx=0;exitDy=0;exitPerimeter=0;" parent="1" source="3" target="5" edge="1">
                    <mxGeometry relative="1" as="geometry"/>
                </mxCell>
                <mxCell id="168" style="edgeStyle=none;html=1;strokeColor=#0000FF;strokeWidth=5;" parent="1" source="3" target="17" edge="1">
                    <mxGeometry relative="1" as="geometry"/>
                </mxCell>
                <mxCell id="3" value="" style="shape=image;verticalLabelPosition=bottom;labelBackgroundColor=default;verticalAlign=top;aspect=fixed;imageAspect=0;image=data:image/png,iVBORw0KGgoAAAANSUhEUgAAAJMAAACfCAYAAAD9J+tuAAAABHNCSVQICAgIfAhkiAAAIABJREFUeF7tfVdgXOd15gEw6L13EB0gCfZeRLGIpIpVLFmWbTl2rNhxNt4Uv23e9mFL8pTNQxzLTuy4O7YlqpGU2LvYCRYQRAfRe+8YAPt95947GAwAEiw2Z0BcajSYmVv+8v2nn/N7TeAQHOPj4/LDH/5QUlJSJDs7W3x9ffn1wrEwArOPgJeXeOHX2oYGOXL0iNhcz4yNjZXMjEzx9/d3/Wnh88IITI4AUKRUCP+3T4yLDcTHZhIm/dqLSOPL23gtjN3CCMw2AgSSYsfCDP72nu3khe8XRuC+I0AeZx3A1QKY7jtiCyfMdQQWwDTXkVo4774jsACm+w7RwgmzjYAzl+M5NgrcPCxBnO/OQvlsN7rf94akP/0s1wZMP+Phv3kSz3z41s6DKyl/oxvWa4pp4HGAyBqiJzGxMz3zjwneeQCHh+6C87h6maCaZmd66LubF840oY96z3td/6d+3r3a8rT/9ljBNAYr+hgMWDQ/wFQFE4S3w3alA40fxs13y6Y12wSQSo6NjenPPNfb27iX8/njPAfP5DtprTee523aPazz+JsXf5/huF8bXC+xRIC5XPcg57o+x1M/PxYw2THpvb290t3bI719fTJqt6s7JjAgQEKCgiQ8PEL8/PxkcHBQerq6xI7fQ0NDJSwsTHx8fGYcO96vHmb6keFhiYyMlPj4eIdVnq6fPjynuwfPG+iX0ZFRNbQGBgbiecF4XrieOzo6Ku3tbTI6PIpnTAWUzWbTc0JCQvSdYL3f0d7eLoNDQxKGtvO62dpOILV3dMjgwIDQoxCAcXgajilgsoTxuXacgzY8MiJ3a2vk5s2bUn33LgaxXYYGhyQgEEAKDpY4DOae3XslOSlJ6urq5Ozp09LZ2Snr1q2TtWvXSjDOcT1ITW7cuiVHjx6V3u5u2bFzp0QAUH6YdAKxHvfh8yqqqqQNzyNIvQGm8LBwiYmJke3PPivp6Rnalk8//VQ62juUYvEgpPinvx+ABFBkZmRIXl6eROM62yzA5nWkqBcuXZLKygrJyc6RjRs2KGjVAuzUAd6/C20+fuK41NfXyxuvvy4pySlKXR/3MWZSb1JwPyxenzksiMfdBuf7TXGn8Ie5kHCex0EjBSotK5OPD+yXpqZG4WoPCgzSlUvq0dPVrcCy20k5vKUP1KYGwGtrbZOcnBwHG3NuEIFEanP52lVpA1UhdUtNSwM4AxVI1XerZd++fTpR3pj8IHwfCirB33pIqfDiRHOGh0FFamprpbmpScGjFMKcU04AKerVwmuyZvUaBWASAO+LPjgf7KdF01pbW6Wquhp9bdZFsmTJEgX4hBNQSEmvXLki1woLtS0D6L8CeMpdH/0D21+HMWgDtRwds8vi/HyMQ+iUG/OZMz3XuU/OF9yfNt+73Q/N5tigRkzSiZMnpKWlRScqKytL0tMW6aSQTbW1tWkHY6JjDMqAi7iO77VKSe2Ki4ulublJ5aGlBQWSkJigLIXPOXbsuDQ2NiobZXRDJp6ZmJgIoPaBpbXr6kxNTdPf+SxIWgrk2Pg4HfAgsN2xsXG0r0cawEYbGhrlwoULAP+Y7N2zVxLATmdjeQZmJqSrq1MOHT6s7DEbi8IXLNw67tbVAqCF0oP24MFKuR73wTEaGhqW9/a9L+Xl5RKHNiclJE4D0x8DxLP1hc96KDDxQjtWw8XLF6UGg0fKs3rVKtmxY4dOho+3IQdNUDjGixTLWiUcCFIfvvjP9RiAnHH9+nXhe2hYqKwBK4yIiNDTbty8IdXVVTKM1b98+QrZu3ePJCNkxpr8iXHcFyvWR59nghYPJotLTEiQZ57ZJtHR0cJ2UZ5qbm5WNlhSWqIAzs3JlSiwU1cZh213bqmXj7fU1tXI5wBheGSExOPeFP6HQAlJlZoA+nG0xRvnWQevJzVh2ylLsX9cLAQ35S8+0wFijM0I2tcPCs1FQqAHQRYMxrkEMFQc6e3vg/w2qGDldTy3v79f5UaL3ek8gWLze8qYw7inr69N5VXej/PCg3NEUYFU2d9cGEq5Tdl3NtnQuW+PAKYJJa/FxXe0oaGhYbJh/QadMAtIfBDZEDtGSsSHjWNWJkxU8Z1yCL+31i6BdremRlpaW3TgszKzdPLZGQ7+jRs3lJVx8FYBvAlYjfo88wacPB+8cJtph/WVyk5sF16LwD5XrFghDY0NStVqsTCWgnU5g8lqm+OGuBHvNYE2FN0plpS0VJ0cX18/KbxeKEVFtwGWIVUIjM46scm2Vim+cwdyV6XUQL7kBKYtSgO7XCr5oJoU1m0+NgBjQCoqyuVWUZGUlJToeRkZGRiPTFmyeIkQzJQZe3t6sTAmpB9AuQhg1yXVyto1xuJjuwcwN7Vg80W8T1mptENWDY8Ixz0Wy9KlS2URKHiAf4CKA5cuXVQZlwuKICL1JwApT1IBuhc34fhzbh+KMnH27nIw0AhO3GI0LoaTTrLudHDQLcGXnaNxi4dOhtN51p9cIVUQqgkYrppMDJ4loFPuYed4zqL0dGVt1BCdO2lMPCnSzPfXNjg/FycmYAGQOnRA+yLbY58MOji9gVb7eX+ubE7yuc/PSXRklALwxIkTYIFdZptwkguLo/x25MgRsMAeCQoI0kVRcqdEyiurpBqLaO+ePRIfFyd3ALgDnx7U9pDSkFqUQTYtvn1bWTaVDJXJ+nrRnwmVRa9du6bXJSclK7i5MAtB4U+dPKn38QHb9w3wV9HjONpZBvb40vMvSF5unvb5EpSLflDBbdu2qTjBhcs54LPIGe4JJnOoHhJMoivZDrJJtkJNLQjam/VACyiOieMXHFvzofruMtD8iiAqLy/DSuuX5OQkScPKCcTK4UFV27I7ZaRnKGtw7eAUoJjPut9bUFCgIV+hPZTzuCpnOqx7G13xknVr10kp2GMTWOXRY0fBInylE20k+MfGoOUOj0xDdPqiRZINGY8acBIWAxdaEQDSiHtcvHAe/U2RcFB5sso2CPuksrm5uSqHcrzbQNkYCUuw8PtuAJecIQhAzgVlI/BGcG+ySCoLp6E507zCNmXn5kgi5onAqgCQ6uvq5fLlKzC5UB6FfQ6UmmO8H8oUgUhFitrubPLjTGM0xTfHm1ivmU5Wg6N5jEFmojGQq9UfJJ4ywxSwON/A6QdLW6RUZbE/nsrnXr9xXVcFZyE/L1/iTHWdE8hBssiZDXzflSK5Atf58bP9rcBwoqYUzNmOmQ5lydaCwCkrly2XSJgGOGE0efA6svQNq1Zj4jsg291VucyZBNPe9srLrxiGVoCWVJbssfvUSdjKRqT2bo2sWLYCGqKfmik4kVmIeiULpCzH8/1BXahcvAAqVgV2SfmLZpPn9z6PBZjMgdRHXrl6RTqhKHBScgCkLVu2SAjserlQGEYhvJeDjTY01KvdTykP5xKsmdempKbKsmXLZDn6GIs5mAlQPI+sjYc1Yg9FmThw5LV8CO075M1Usx/2YGNIla5cvaqsLDIiUmUXUh/r4PMsYtbT3aMUhMNGQdtxWL3iu9PXs7drAuaNUaV4BCeF27nYalRLRN/XrFkjrWAbpCQUvheB8qxfv17Onftc2+pMfIlRAqYB6jzlJlKOMfSBVGoYk8v7jY6iTzhxNQBJtkt55yS05aKiWw65Kg5aKe+lXTWBw78tZYb9oHmiHeaXEVJHHE0QEQ4cPKh95Iv35nOoDLDdBKk1dLFgs3v37lXK5wegz2kY8Qxv3OChwMQGkrdTZuFB2w8FYmobrqxHT7jPwc5wgDsgIFLDWQZzQFwcVHSsTquT5N1WksNdPI82nMioScFQ8cOe6x/3eaDjZ7A2CLGkemwDV+iDJFJEgDJth4zBtrDtL7zwgqRBIKepwTosQBGwlGEOw6QwBC2MC4XCNgHFQ91A6oMSKUD/+feF8+cVCBSGKyoqMEbFsvu53coq2U9qjEpJHegyus+FPQ63Fu+loEH/lAIbt1f5jguH9jmHWcMc6DB8R1MOY7qtsZ/rcD4UmAgYCnrkqeSzFA5rIEByMlS15MBggNiR2cBlNZQrioIstZfBgUG1KpOsu1rG4wBevihAkhXSeEjbEQFM+sTDASjzb/3SPKwB0cHnDJuDTHJPakjKQHmExtG5HxDgE5Pk+eefV0AmYUymqtGT09ADeezMuXPSArln08aNsHktVure092FzI6jAGPHZFsBpKXQ8FJwPxomq6oq5TKoH2UdWrqjo6N0fNgNjq/2CYdFqbkg/GCk5W9cJNQA8/JAaQAg40SDjlFholmD7NiibDTAqsZtHjqmkx/v+dcUMM028dYdFCDmB6rsVCPbMbmcjM/Pf66CYRIEZ3aGKitVTg4uO642DVzMjluryXpvaWlWuWN0dASuimzwaajILpZorqQlUGcpUHZAGL0KmSA2NkbSF6UbqwiDRsGTB1Vc2pqstvI7rtY+sGOuOAJpaHhI6mrrVGuh2YGUj2wqwBpwq9Pm+2wDyu9pJOVkUGocg02Iw69jaV7EN2pcw3gmzRc0tJK6GGNEW5HTuOBcjls3WDltQhkZ6WoEbmyENot7lJWV47duLCKCyXgOFyONsAP9kei3j44/tdTS0lJlYzR9FBQsNYR+mFJIJSma8J39pRLlmHvnQXMZA9ePznjgbw9MmRyDio5s2bRJwUQ7Bi2xBEd2do5SF+XbdIdgpW/atFmio6KmTK7VMF7DTtNfx6WWkZWpDmCrc9bzfPBbAVZrDQTbawOFapo4DDU7H3YQCracKKrlNIZuxvPoGLagz2eQVRDwdL+QilBmIeug3BAOirp8+XK1+Thbs6cNHokaX+YPU9+dPvFPAsT8x9MDoe1S4yWQPz93Vlpg4adMc+vmLYAclBGLzuoz7VBnz55Tk0UUxm1kZFjdR5QTuYgpy/iDVfFv9ovAu3Dhorp5goKD1FRD+xkNvHdKBpRzkJ1mQJgnJacz/g5YJin9K6+8olSMk+O8AFz7Pttns6s6Jg/km7OGy7oxO0O7BMFMlZ6DwBdXPyeMkxgGd0oWAUYrNm5ghaXwA/91AgCUl0gd6GylYS4Q6joPq6HGBy8I5hHqQ6M8UFJSqoC6C3ZH2Y2kmvIWKVoatJEosAIdIN4HQCR4+LIOsjVSO1rQqeavXr0KPsUwx++uf1j34b1UvjFXsDUm1jt/o1Ji9NU4if+nNrZs6TLIV31KEWugudFmxEUWFxKvi0nvgZNr8TvBQ22M1nrejPfkItuEBcxxp7V6w4aNEKY7QdXhwgGlvnXrpvaJshxdW9u379C+V2OMSPkpimi4Dg6eFwMOYFi5DdFEFSr2Da/7HVZbed5jCY5T1RWNJkk9c+YMDGFlDjcBf+Mkc7DI5zkoZIMZ6emwqEYoWyFJZifZ+czMLKijBRDs48VGq/YMBztJueatt97C884qRevp6Ta0EQwSZQJOGm0k7CBJONlgOLRD5wEixaAQykmhGyg1OcXBVu81jOynZThlVMRMB6+ncpKNRUFHOCkzv+PkP4uFQLDfKbkDNjuslGfz5s1qr6O1mxZwXz9f2QiZivNZWVml7JiLko5q+hbXQoOkI539oZo/ODgAbfKqRkiQ6vF5dmiFFM6pkXE8qCVXgUrR6T6Bhci5YV82AoxJkPnIJheBKtPmlgTzAueL2tkcMDVlCLwgoClU2eB3331XtTK+iNy5HLyON+CLNg8Kx7SokqxHwjJMjYFyE8/T1uFdJ5bX4V2/x2FNIt/vtzIYesFz+LxmPo9+JcgXBCipi+XC4X2Nu1NOs/7WxzkOfZ7z5zmMoKPNs5xrPBM3tfpmnqeBevi6H+0lJaXNSNVv/M4X72v03TB58By6Vvg9tT8C0rmt1tiTqjeBbdrtY2BdsToGZJs8jLYi6xbAHoCCQ/sgWWRQQKCCyjocbTZHzKA2eJrzA53GafLe5Erl8pvf/ObBZSaX+ylArOdR0M7IyEBzDIAZjMycRPMky72iwOKBNwtOU5wx/HKWjlhgI//PSE93etr0S4xbGBrKTLeb9sxpHZz+xf3A7niOC9ic283ucZRmGiP2gr9TXNCYKfNwbb91vyCMO11PVu/ZJ+P+nB7jKhpHI8L9zLE2bjh1iI1PVnt07B03cTThnn88sADuejerg1M7ak3h5ORa6rvz9ZNnudzVQJeFsmkIcX6WdY97YE9vbo2Na/v1s/U857+ndmjGyx70y+m3dB2B6Wfc7xm8wuibAUDrfOt7o0tTn+Pc3cknTr1+2pjMoWl/tFQn586wQ/dqy7Tfpn0xfUidT5nD6XqDWc+b9Yfpz32c37g+1vXzgz7rXtfPZbx4juO8e91sloZNoUyWLDDLuXP+2rUdrp+db3Sv32Z74EzXzPTdoz5ntuc/ju9d2+v6+UGfca/rnX+b7bzZvn+QdkyNGXmQKxfOXRgBlxFYANMCJB7bCCyA6bEN5cKNpoDpfirvwnAtjMC9RuCB3Cn3utHT+ZtpiJlml3g6Cf4j25nmI4gYtsFwWFqWGX5Ll8UIsoLHJ8bUomy5imjl54sefPoTnS3K83Fc7tenpx5MBAddDQzVYAw4X4y3pt+PCQAtLa3qlGVMNiMTCCgb/Gex8OsxZIW+QobiZGRkwFEdrZkcwcGh6oN72sSGpxZMpD502jKSgP5Ezf5A7hzjm0oQnkG/GB3F/ojHZhAb49xD8BmZgDI0OiwN8NRXV1QqxWK4LcNdly0vgON2kyxF7HR6erpGLNJx+7SA6qkDEykRQcRYpkKkC51D9CNDNGoRvTACyoPwNnVYJibGSsaiVGTKIls2OQHJDdESAECNwS/eitCQltZ2ULBuaW1pRxxRC/IIO+QM0oqYZZKUkiobESqya+cuWb1mtUZLPA2AemrAxKhCsjBSIcZo/+xnP0MNgmaNaFBv+ji8+P4+mnGSAgC98sJegGG7hATAOTo2ovIQfaYEIyKsNbTVF7lvo8N2OX/xshw6ckLKq2oRftsjLU318ttf/QY5a2fku3/1l8gM2awhH655fveTQTzt9wdKdfK0zlntpTxENkYqdPLESQ3gYxz1DsQXkUVdvnwR8U+jUrA0C/HZ62UrIjUT4xBvhTgMfo9IW4DHcFUjqhq3RWgu2OT4QLf6sjatLZCN61dIXWML0rWKkDhwG9GnFUidb5H/87/+t+x5YY+89ZW3NHUoEKEf8/WY15RJ6zO1tWva9s9//nONzIyGgPwCEgBWrlypsdbnz50BJYqRjetW4PvtCJRL1KwR7wkjLxBkCVQLwWYIKmNgmX5GTBDBpEiyAvlAthIifCXumVWydcNyxPjUyYcffSYXrt2WA598LJ3dnfLd73xXATWlrsA8QRatI/MSTGRFVO2pkX3yySdyAunQVN93oc4T5ZgRgKiw8AZSic5KRJi/fO+7fyarViwRfx0NUJ0xZGsALGSNLBrBF2veGcFo44ohdYxiBCeQuMk/rKguRuyG+HrLysXpkprwtiQdOCIHj56TE0cP47aj8u1v/6XWA2CU5Xw5rLoR8xJMlI2Yn8boP+adsajYtq3PqCBchtjxi0iSrK+rQTz1annxhW0QtOPE3wdgAXgUQKA84zAX6KHRkUCIIoh/0SDJD0ZUkBF7RnaI30wbpvGTXaIiguRrX3oBQWmh8rsPDsiFz89ooQ1WtytAxqyVdzgfQEVATQHTfNA4mBn82WefyY9+9CPNEn7zzTc1NboXGRwXkdRYWVImzVDrX3ppl7z26h6JCEUJQkEmLUBkR6oVQ19JlbzA0ibHg2CxYn2UJimgLOzoLwa2puCCZwT6+sjLe7dC+O+SfftPyKnjJyQmKlb+4tvI/8/JnpbS5cnAmleUiRkxZGk/+MEPNIb9nW+9A9vPMqlHtscNZNM2NzZLV2e7PL/nWXlxzxaJCEH3ocVRthrHOykSCJEDLBZ8jC+mosWCFC+YjiPjV+bvc4C9bF7y8ou7pWdgXD49fEbe/8MfNFvnW+98S3PiPHERTy6kyXXkrXLA5Ahqxzyxc5xw5ub/ARPF/rz26quaeVIFw+Klixc1976zo1V27twqX/jCLtiNwpX62AFAUiStsELqY/Z/sqCF8rdpBMP4FheQDXL8zHF0HktexNRMb29/lC1MkK8iq2Yd7E6Ulz779DO5dvWaumw89SBrc2T/YgjmFWWi6l8J8Kxdt1atz9eQ4vM5vutBBiypT1JCJFjeSrg9kB8HbY0pQfyeQjelIVX+MShqU8LLDnanqUH8jSAjcB5g5idYGcbbF/uxeUtjHfL2egaQp5cMf16QpngdOHhA8hfnazKAp/v1KEnOCzBZlc5Y3mYA5fhYt4jCN0vUEB3MA+N369a8hGwPOmQhaANIw/ZBBYuWkiFQMPlMERq1e0lDU5s0oC6A3T4scSiQkZwUBws4TQaGNjdXTPmC3V65UiTvfXhISqtrUURiTLqQyk05/tSpU/LiSy9pKRzmu3n64fFgImWhCeCnP/2pnIeAPQiTQCGqqLGMM7ODWdWXNQkop/T1Ir9+1BCwR2HVhvIPIJH7s5QhgOQbiJw2VMu9ekt++ev35drN2yBgw7J29VL573/9juRmpZmV8KZLSTMBgWeNQ3s7dPSEVFRWQyaDgQElfIJgg+iH7YrVU85gAaxEKjcB5anihdV3jwYTqQmB9M///M+aUcyD1W9Xr1yFolnLtGiVFrtnoYfgEHj+UaMctZBY0JWqv2poJuP3AvVq7uiVg4eOywdQ48nuluTnSkggHLXjw9KEqrzpycg2DmA0AH++F8MjjHgSKrwM9Mmaglx5bssGCQoLkbqmBtTCLJXLV0uwt22HWuW/8IUvoDZCHDQ7z3IKcwTMnurYe6w7xTJM/vrXv1ZfGwVo1vOm4M2iFaxBcPz4cQXTGNR91ijSuCQK3ACTsjclMMaQDGOXgw8+PiD7D55ASnuYvPrSdlm2OAfCcgCAN6aVVfz9QMEoaOtls4PJEMIN+5RtfER2PbMOFI1USiQvO1E2rSuQFUuL5Re//VSq6prV1cNKbWFhnrPJtvaei5FDgXePl5lYfYUrm9ZuVo/94muvaTo6v9NyhqppGQI1J5iy0zjNAKRKXrRcGwNC90lpOYo/XC6UZEQLfPNrr8mqpTkS4Odt7AVDPxwoGOr4GtfckyqZp5g3V+rnCLyEQI7PwagbsHXtculo65Zf/v6g1KGyC1PdWZjCkw9HNz2tEwQHK8SS8pASff3rX1eV+/LlywgLMYCkfcLSoSxCIT00JBjCN74zqRLFJQKE9yoqrkDckp9846tfAJByJQAAo0/XOAcloY1bPdowmXo0n+lnm5Cd21ZLclykNKHiyQCKwrqaFR7tYX/6qz0WTGRXLPPMohV02rJqHYPbrHqNk0NJNBlF8INDEOTmRzuaQbFMrGlEAFnfnt07JC8nHQFt0O6g8RmSkReiB8wyOiAxpE0WfXqw6VKGoBcT2HQcR4KdLs7Phv2rTRfFApgebEQf29ks0kX2xoPFHVh8neG2kxNtTB4niIZBgiUyPAzOXFSxJeuxWqJeShQIW7NMVhdkSzAqhFhykQUcvScANQ4wdfX2yQgt5bP0RCu7uPjvjFN5BWtNTkhldZ30QRFgNZeM9HQtCs9KbmyHJx9TKJOnqaYECmOtafBjBTXGLREIxmGCCRPbD8GbsdsJ8YiWZBit4xycztPwW0ZStCRFh4kvgpcsoBlgMrbm8IKK723zkyuFRQgn6Vap03jC5PRTMxwZgf1qlDIWvnc+geeD2nmBfX762RkUlW2CUmDX6m0MZ2GNJs+GEkUCDKwzefU0dwpL9AyZ9Y4MBsT1Ya0RRkeijhOomD9U+qSEcICJNiUDJgYMjClkkIlj/vEHT7HcBaxDaUPIbnAIWGlJNQya3EmJVxCI5l1MBNbWN0gVjKXMajHGks1Be6DO0SDKZIMg3OdOWQ2oXD9qc6M2JX5jPU6jStwkOD3tL4+VmayBphtkoB8Fsejpp/sCk2pMIikM5SMfraKWEB8LQyYKj9FVMsMsWT4mDojz73Sr+COdyQc2oDGclJSSgayVDhgcWeTeRJ3T/RgPfvbcBVAvWLl5KNjYDl8E3aGKHNq4eesGBM9VYyMg1vy0oVCZFwL1BnVzI08+PBZMBAzZm+4cRSqBIDXak2gRVwFXIyHJikBxAKYolCJkKT+izQKO68QpJbLm3/pRZSAeYHcIklu3dg12garBfid1MoTCpRTenQ9a22+XlktlLdjuCIu1m/CEf24MhiZSoLwlWSgvOC5lxdjFYAiWeK9RZLyAFbPNHnx4rAWc5YlZSo8smgLsCARabptFLY8V1xhZyWA4LfOn6MGk4t156pWVcfLwM7ducMaFA3BQ6gb7sbWWH7f8GpfEmEBUtPWRD1G7W2zbZEV+DtKgUCnXlMPiYqPEJyhU9h06o9tQ5GWk6N4kXV090g7/YC9Y8rCdW3yNyukzV9XJa/MFyCGTGc9ki2aine6PMo8FE6kSY5ZIdUqxMxINkSO0bJtjzijGBMQKJSViMjFR3diV09r+wZoWnTwndOlnax5NZA0OYLfPkrsygZEKDglUgT8RmykeO3NRIgDY9KRU1C1HAXdm++LaCO6RtyIfjt1jcuHKLYkHpYoO94fbpwLRlvvlbn2rjKLN9mEvCP3cUs1XY8KD4eidy1Yb7gwpzwQTqADTlGjl1v1H7COIF4qGXBSj3nfWIL9b2yDl2HXJbh/XIvV1NTgfeW6LUuFf83FCjQkeF1yZKEPJZ+TF/fjHv5RSCNahqBwcGhqCGt5tMgF2FQzA0pLO+HAeSvdwox1wnxQWIhvmQiFCglNk4+oCtaxHRcRiU2y7CuKp8PO9+tJe7LQUA2OpDYJ5EIA6c5VhdwaQc9s80jdHanSWpaJLy1StXr9hJUI5YHDMzYQPLQQukzE5cvyM/OxXf8DWr/USA6B5QYC+29AmBXnpEgZ/m4ONmaNBQuRMmIyvJ9RP98wzG8S3sFg6UcN7bMguSTFRkp+bIrsQ2SUkAAAgAElEQVR2bULEJDeshlyGiy0iFxcRJm++ulf+9ce/ld/+YT+2BQmQ5XnZ8p133pAOUEh/mCe4x69/YDD2I8YmPIxYgGzGf558TKNMTlTfffsFVdqInmyVjMxUefsbX4a9Jkyqq6iS23X/u+07tsj12zfl5Jkr0tXTpRPdimhL7qAEYWsOfTNoVXCIr7zxxi555dVdunkzhWQ/mBcCEE1Am9QUQQt35VXeAPvy/DTZuXWt/HrfAdn3yVH1GWamxoBKoka5wg+b8MAKbgndViH6OTTMLU/h+DrAxA/Wtqeuq9bdWs+ttug28bF5yxtfflHiE6Pl4P6j8iEmrqWtQ5JTk+Wbb78Kb/1GbA5YLs3wfQ0jTokmBDtYpLVP2tzoAPaRA/fxQRx3gD82/cH13t7OWpeRluk6Rv5Q93dv3yi1MBWcungT21aclC+9vF3SUKebG+BMYEGwLYx2IKXV6E7Xm3jIZ+KFY6qmAQJpppe79qUfoKAvi7tlLlu6WOxDA7J+9XLJx24J+TlZEghv/4kjpyQW7CYrNVFC4GvLgGySkZYsvnDmKksyX7P20SGNG+zHYIOYdGVHLO5O+Ya+uqkQ0HHEOYzHjI8Nk2995VVZW5CDcJhziJU6J02tPQCkQZuYaM5NmBneqyYLbYxnQmoKZTIGFR3xhL7oih6HQBsB776vpCVGiD12CNzLS97+0ovYyDlRfvHzfepD27V9g2zbuEIW5+UY2bqgMF7ceYlgmnHqnL7FpKscM+OYWICw4MjP5olqJjCgER8bKl968VnpRg2CDz88Lr7efvLGy88il45JmN66Zb0fTBx+ftgMcjJWxbqpR72DYNONYKwvBnBZQzLj+LlJ16ixce8SlWFgqISejW0m+8FKQlA3KVhS4rBLEwyD3H7v2U1rkdb0rGQtSoCMgwmGCq99w58u9kbtHXFguZju+26NB0BH84MP08odyDNHEABZtixX3nxjNwTxMDn42SlphIbI51BOakP6ehDsUgHc70XjYzzj0OWCLurLbLJGQFsf+J1J1N26R9xzhFtncbPlLsRRU+4g44mKCpfAYLgtYETcsnmVJFE+4eRy5tTzOsmUrEUzvaPWiMzhHfflfXh7htzSQGpQF8spg1/5H0wRa9ctR3pVFABMuNGAaoCpAeHAvrDMkzLNQgKnN9FNvpmCHfbHTdr1QM0gxaDlmDsj3Si6LV0I30DsJHZwStX95DhR3JAmHCEnNgjp1nJRucd8PdADZz3ZWJZtHV1gqdTM+CTDuWw5eQm2/sERqUC5He6GmZGxCAkFMHIS2KBa9Q3NEhoWgTKGD7cl7axN+xP/wFH2SDCRHTAgjvvTHTp6SmrqmyHITkjB4myJjkByJdiHxgCoQZFBboaf7o8xvna4Rg4cPiVVNfDFoaIcM17GgVg72Gn/8KBUwXh6/NRl+ekvPhAfaHirV+fB8Ak7F/4xE6a2vgWW/CA4e439jv8YbfxT3XOanelP9eBHeQ5ZcS62V8/IyJArly/Ihcu3JR5+sOgI7jZuqO0TmEw6fbnnGx28BBipxOM8SH3oC7x5uwyRnpEIxfUCu7Jp8kJ3Tz/2122VA5+elDqwssTEGPnrv/wqdvPMhpw3KCNIdaptaMU+cd2aKj4filhMBxMZodsfE5icJNmydSu2Jb2pwWZRocGybdMqRFOGKkUaGOxH7FElTAiDsmr5EnxP7Yl8yJRj8OlBuuqwTbnIBoGwYrPm05ETZ+ROVRWEfBueOYB09G4YUAfhG4yWnc98QTauWQFKGiFN7b2IZSrHBsxp2AG0QvcSzszC7p8emISp8iJe1iKloqzQUbZgCqkPNsxPAHmgCNxLl9mwV5ECfurEMfm3n/wG25AiR23FMhgXfeU2tmr9w76DsggySm5uHswIFMWNrlMEnjOQDLFIR4myGq3p6mQGtbMh8tILdQS2b9kqHx88Al9gLfx+PjBR+EsGcva279ggGenIh8PVjAK9VVIuR45dkD7k0iUlxcKB3CBx8clYGCgwBlB50qGooSSBN8qhlJc8qwdOo03wc1vUv//+9zWn7QSKk/7wl+9J1CfHdDI7WpskHtrTti2bdLtS+DhgaaaYPvelAsxCEzMMk4zdZpWUG0V34JYBawqLxD7A0QhHwVakSVHy7T9/Qy3ZAQAZvSzhkN1oQ6q72ybViG0qQQ2Es+cvY89if/m77/05JmAcWb5VsnHbbt0xlCzT0w+PBZM1+KzF/b2/+Ruwimw5dvyYVFVWSgO8+uRoX/zi60gn2iphwTZEEvSqNGUan+cwb3TewtYNisHrBuGQ5REXl4g4pJtSXHoaojbiyfG7fwAplbcEosSzDRqa3T6kvrzSklq5eLEIslOj9IMyxYMCvfba85KVtkjOXboiHTBr5Obnwf5EWc/zD48FE4feUL+9lE288xfvyKuvvaqVRd794bvS2tggiWaFW5AMFcCJJLoyVGwinwO1Ieuy7uM8neMAklIxnMdw2sqKRq1jkJ2VLN/59lvy/kfH5Mr1MlTX7Ub6+aBuzMwIT1InCv75KxZLU1sn4ry7sGduEMwWKfLlN1/FJsv5gKCPfI708Mi4JMnOy0M8k+cXreDYeTSYrMknGAgKsr23vvyWHD92XFoa6uT27WJZszxfAiIN14UG8QIhhp8Wkw6QdHZ2gWXBAg2fHTn/FDYIILEYKq3swwM9cvjQWenZXCBr1i6Vv/rWl6S8og6aWjNAg10M6rh1fK+G5Y4hhmpRQrLEhUbiHVvNI/pySf5igD4eJgAmj96S0opq2bx9F3LnIp0x7NF/TwWTB/Nti+1xF/E8rPbrV68g/OSMvLB3B8r+hThkEqvGEsFnh+X86vVibFeRIYtS6G4x7P+cUZVgqJPgHAqXKwDK9o4+OYra3qNjXrICvr6U2AhJS46WMZA5BumRihkUUBDKi5BiMEgvrzFYxiH869iOqZLw/r79eDbisNavV7OA8TCPxpE23uacQ2ZYMScH1PO6Z9RO2rt7j5w/e1ZKbl+X+sYmyYRfjulKhv2S/M0IRvNDkNqI3VsuX7+jGSjJCKIz/JMYA57GQ4Usvk3Irt0bpK4VBePfPyxXMkuRjZuquXgMH/bxRpYJnM4GMsg6xyUUwnlcdIT4mA6sEZjIz14slDIYMpeu2QgtE2noTPqcJ8e8YHNT5gJzz8KjK5avlNrqCmhfRVKATN2o8ABMsGEeMKgO6geA3y0uyJQf/eR3oDbj8vyOTYjXRj0C9d6bMpN1c1w0gWiD55FC3tkzKgcPn5Yjp89LVGSI2JigqfemKwWJAYhO8ffF/RDPtHf7JvEPR/QnfqtpaJGjpy/JAAC8c/de7FqQqM96/ObUJ4NOj3Sn3GuoCBRGNW7fsV0SUUCrEDsGNMBLPwYHqzeoB/iQYWMyJHDJzEiWNStXyKXLt6TwZokMQOtSmxsOldFxQ8NgSTRBm0PW77e+9pK8jAKrmfAFsl4litDBEj6OF1OuEEMJihePmO8CFMAIRWw3/XVdiMF6f/9huXqrXFau3Qi3ylrEfTPkd/4c85AyGWxp7fq1snzVajl96gSE3RoYEZOQAAA1nwXiIQcZZyFsBL61N57bKt6oz3T23DVEHYTIKoSMBDq5ytQ5bM45Za3Q4AD5b9/5sjS3dCByoV36oOWNg7LZYMykozkuNhKaZDSLXwGA3jKIdPGT52FcvXBDevpGECbDwl5IDsW9GGw3X455BiZOjDHzLK+zBjsBnEDBr88/vygbVi2VEBRI9VbvPk0CdAAbJgLGc+99br3UtTfL+wePMUYXAja8+/gefMtxnvmXCuQEVSLippLw0kOJGWka5S0WEuMzRIagCd6EW+ejA6exE1QfZDebfPzxx1KwfKns2bsbPr1wtajPh2N+9MJ5JjCBrF1ZDHfK6dOnkKDZD8PhJbCwm7AFjSCAjaX+DJlI6Q3AMgotLhyxUF98aadEhvrJh598JudR17Kr26iZxBI8xmEoJwQVA8F8wP98kKVrvOA0GWdRDIbz+kDW90bSZZ9cvHZTfv7r/VJcjh2k/MNgMY9AGaAReffdd7EVx8dIEW82ykbPAzT5/E8clp2GhbK4lRVfnuYrIqWgsZAlkY8fOyY/+8//lHNnziGJABm0kIO6sUdcVkaG7hvnAyQYm+qYENEqcuNIoAyWvEVpUllVJ2eQ8zY8PIGYKBSaCGbQGwVsoxwPKZDWeNLLDaCx3A6LoY7hXt3wvTEk5cChz+X37x+VO5WNYgtBlZW8JRIWESMjiBBtbWmQ28VFauiMj4vX7GNNKvBAtsfkjlu3bomCSYcEk3H5CsGU6HGOR4Kova1NboL6vPuDf5OfYQeniuoaEAimJMFgiYluhYuFxsQ4FLAIhUXaRlMBgaDGIXW0KDQiIBRnwkVTgmC2Y6cuSWNrpwQEhehpBJQP6zs5wlkMhzHj0fthAe9AsYp6yFDnoP7/5Oe/k1OQwdq7B8QL+9IlZmZLEJy6oTGQl5AOPjTUi5TxDrly6aJSUubRRYZH6CJW7c6DRCmC6SbApDITh5Evy3dlmlZ0cN39YCGv4tu35Rio0ZHDn4Ei1Iq3X5CExaZJaAQcsZCduluapbO2CmEi56S7v1e2blkvuRmJEhsFqgMbEf1qVjB/Y2ef1GDfuFyYFzr6huTk55eRf1chS7LTZPnSPElBSjfNDIxMYM2nQeTh9fcNIrSkG6EldyHsV8IyXmNodhhIAm9ibFhaaypV65tIhSyWkibxCJRrqiiSwc5m2X9gv/S2d8rbX3tb1m5YL8GwyHsSoCyN1yGAW4ByfnfnxTGKLSo6Ojq1ruVPfvITyEjFui+cX3isxGUvk5DoRFARpDVBdgmKSkYxrTHpbq5UcFwqvCWpiXGIMVqp6n1CDNwpWrfJG6zpnJw+ewXy1aiMACwDqFLS19+C8NomXHsVLBLyVVigxpvT1dIKysUMYm9bECgf5C8Evo0i6pMykz/YXihYVwCqnAz0NEsrq8PhMWGpyDyOTZFEQKaxHE7kzhZY609rf77v931Zt2GDGlF1hbvzJDhRGjbVRZvzDPLa29er1Ii7N7333vvSAxtOCEJCYhIXSUQKdkoKDMc8GP8IkHH/QInPzoP6PihdbQ2Y+ABJSs2SxvYBuVNxEfuncG9exCrBT9cA63QiXDIZsEyj6o20wWfXBVNCH1gk/W6cXZ9BP/FlZRSAJTY6HkUn/BAvFQqu6octydqktqYBAzsqOUF+siI4UpLwe0lflxxs7ZKexhrxBtsMiYqT8Nhk8UHISlNVEb6vl8Kim/LevvclPTNDUtLS3J0pTGufjVHSPFRDwf8oSVi6zrSzn+AXlOmYSk3t5xS0NG64cxvJBPTuxwIY0WlwTUQmoiNU54ECqv4wAXCTnSGAhRVSbCgc4c+kx4kRFIxIlq2bN0osKvWyPM8gBPWf/Pt/SF9zg7ySFCGrAE5CpxFFMUqxPcUdaHZ3YSPqQo2vYN9gVORdKtnZKeouiYAMRlPoOYSbVKI2U4rfuGzB3i3rIkMlhrHdaHtqmJ8UdvdJ2VAftitrV4v4GBzBQeHRkpi3HG31lYHGauyycAGRCJ0GmNyYKikHM9tnIAiUyfpjEic8w716wWKobRCw65Hm/eGHH8pHH30ovUOj4heMzZkz4CpJyhAvUKMxquUAHN0e4wDBCIpxsXbT0DBVfEwfAvfjUrOlq6lWfvW79+DkvS579+yR5cuXQ24yMn0jwV6y4f6IgUwzAdU/1jdACgCWoQR4+xuxo0Bbr9yFZvjJB59IxuIshATnYDvVSFjaS6HRVMuSQC95MydVsgCiCQhJrO/N5ALarmJAEavgJOZitaNP3aMdcPiGSiAs9ilZ+VLd1Qbqh+JfqhQ8wZU7x0dPwQ4+uL3RkhSJWtqHH3wkJ0+dhOO2HlkeAQqg+IzFurIZoMY4ovExxBRxgx0URB0exm4E0LAoJHtDjVcXCdjSCJZTWHySBCBm/C7Yzr/+6KeSiBpKpDC1VeWyCHYo1gLow9aqo5CFePiMsHwzygeiJmYekjwLET1wtc9PbtfXyFWU2kkJCJEOsEKUgZOVixIlCPuyDAIMBMUoqST/xisaMpwNlnZ1OCulHcWOU12Qs4YlDDIb5bFIJheAUnrawQXi9mCi2v9fv/0v+fTAQS137IMCW/EQsKMTMrCPSRBWPcsPIoYI57GUM2Ot7aBKIE2GLUgJLW1CZg1vfGaEpC04SsICI1Veau1sldrGYkjC3ZKFfegIPHr4cVc1cNr1erxQHTcUFGZdbLhavu3V2KQH7HANCp5WoG2/RGHUs9jGtQ+W8xVRERIdzIpwUAHoF8T1McEotDoEgDHWHiDnPcm6ByED2oeQ+4e2L8lfJyGgVMS+Hh5AoSzguzWYSJX6wKYqysu1lncwZJ7YnMUSHp+uQjQNfsMjNEr2g52YBUYhQzH8Q63WDsu1NS/WDHFqsZbwnw2FtqISg2QUu0B1N1aDmgBCnGxMomVA1KuU9aByL367C6p3sx1lBTuGZSSIYIGGBqpiAzCSwXq3I+QlGkJ8HzRBO0DNa4kJumdsNnyH+9AnR1OMUeAe/YTNibavZdjhiQZM63nWRHnCO7JTjIMDZi5it2k320P7Dx2oDNSIjIqF/QieeqRSM/qxp6db+gcQ2w2WZDljDTMiu4CrLeyAtdGw7PhIKuPUbzvtQQGwQAdFIjGySesmGdTMPMu6ENf44LcUZAlHI/aJ6n85wE6qVwerdg9wQ7mtsw/JmP5gZ+puoTMXz8arB3LeBC3pMHzqZojsH/7PNo+CssUiZcqR9uQBlnC238INhxPDYgyYanVKfs2XOdhP9A1NIcnnXmy3i25BC+qUSAiuXn5MAQd7w6rX3ZnQBectLNgVTt4kYaL7hFyd3xv9s/DhjRONeG9MMmSf5i6RAVi0Y0FuGGqnFAz/V81F2Z0XdhoHhQLIvX385Q4yUG4MdcCuFS2hqaHSDHvCma5RiQ9EyhMKqtoA9EBY4n28bHK7C5TMhghMXK9UyRxcsjoWlY9PSFHXiiZkWj8+0QmY/eHaPAyiOSw6Sm7N5the+qsWI3768wvn4K7oVkCFw07jrQFpxuo21ofRcXbOAorzjEz9fvIXnqvUDCcEQh4jSFoh1ySbrAjK15SDpeQ74LO72NUvdwC6gk1bJCktVZYVLJNwhK9cgmp/BXsCn6qtMcr+IMY7jNV0kd1S1T8kY0gG9cN1XtSj8Swe9NVR5luxYiXcPfFa89ITDw8Ak5esXL1K4j5NkLaOcuntaJHgmHitB+kDrUed1IbCpOM/E5AcPzgBw3EeqY25wpjvP4ycu8reIclEAfgwf1rFKY4bdISaYBOE8JMt3XIFNqcoZJzs3LNbli4pkPDICI1QiEMJxK3bnkWYyX65hVrh2es3ozBFlDRiJ0z/G7AhYdMdH1ArnwkWmGeDYS1HsTJYnaRg2RIJ1YxkT4SSYZ9035ZrQLaXZMFPlpmdLX6Y3IG2uzI+ArcEFrUf/GrO5fuUFXF+nN75t/Xibwbrm4Scdb5xDqQfVCQpg6reguuGYSYYBWUcxkUd0BiLBkbkcGuvVMKqHZyRo6lMd4rLdb+UoIBgFG09JzU1dZIO21c68vgSMzIlKnmRRMIft2zHDtn6yhclNDIawXLY807FCXSDwXqDXVKA3Z0YbuzJMeFuT5k42cyc3fbMNhSpuKJFILhXSgBi0hgeS0cq6YYFFAtI5lcub2CLmEQ4WCAn4f+mkDspWyF2OyxW6juapA72IH+wm0GAqA0qexlcNpXjNgnNXCyr1m+Dvy9ezh58X44eO4G9gLOw512CNMDmZAMAyS7HCBK9PygnSOcoFIZAOHDDEBkwBnanjmXiCXaxMdjDnkegXHxC/MzN9pBvp4DJXWNp2K7du3fD8v2RNDa3SAfKMYdGJYgf9zTBhBsWm6nUZrbxp3w0Acu4l2594SqbAGwQqkf9QuU8aindgv2nsXNAGgAkf/jglqx/Vlbv2IvYpHAVzgs2bJNTH/wGPsJPwaKWyv/4h3/At6BuEPZZi4mp5SwUT7GdqVDVSC3vxU4F4wAbC6TSpDDY14P09iC1wkdgqzOD983Wevf+3mN2dWJ97z1wfcQj7qevvhpVB1lodAzefj+1HN9LzJikPDgLGmsPbDrcc8UQdCevJCUZg2DvgxjtilFvuYJM3TpurItQlmUbd8vyLbvgmAuGnYhiuF2iU5IQp5SFLVkr4UopUptYSUkpZLt2VGEZ1AonLE9I3trRVCflhdcULP7cgkNbzA2hOzXbl/lzZNlzWxLuCSpDnXDPtk1pFZMb16xZg+C9eAABW1twDzloRcxZ08gAyiAuhwrWTl/r9MHtMQbzgtbFRFq2Brphgi2qzHN8EVobnJQrYck54gcZKn3JSsleu1b8Ub3XEpqJBT+YLbJXrgO/DcZ2rtd0x4R//48fy7XCq7CB9ajGSTY3NtgnxZeRvOkNwTuEFeIMikh3zwTY6NLFi5EyFaWs716LwrV/7vbZY8DEgeNGf6koVeMPQbwbMUB2VGojK1GrII57y0v8nXFGcIzhnYH9lG1odbYMnQSK0gbYhLwCwmQIYLWjSH0ucvCC4LsbA+UYV3uV8TxYkSQtp0BSc5bKjZtFKGpfiY2nl+i28v2w2HsjJMUbtS4bKkulA9EI0BiwBwvTXsjiYKhEoB7lsmwoF8HYP5i3JfanLwvtntsfHgUmGjDT09M1U3a4D2G4BBP3G3EClEWNnCmSNQtU8Qkoyiv04nszRNYgNSqY8xoaMUk3fCE0D3eCHcLZW18G1sVISUYfUG42yYc3LNzYr0ByV66VAWho586fk+ee2wlwcAuwUfH2hZsGlu2KWzdhGYeyAHODZmjiIEUaxS5PqTAlLEE4S5Dm11kwdXvczNhAj9DmrJYzPppbzlN+6kJ4rR3l/vwCGZTmCzkGe78pq5tkFBRwdaVbX+EDBWLKSl5MyCRs9ARayHGlAksJl37t4xci9oFRuXzqhNwFoFY9u0Nis5BTFxKG2HKySAr/dglBQYrYRemoYHcYVX43yVgmVQLsaAA7WNn1i4jBahEfWNd9EGtluIxBlYaxnRnAuXXLZtR3SjbkNzSC/kbDWU3rPndH8FGWzJgrd1WQdNBwTAMTO2BMinWK+7xzMAsKCmDTCZLxYeysBDARPBzoUcR8cANlAkep0yzNJpi0GCmAQO/ROC4wgDT1AgrjoSh1OMhNe3o7EbDWJkf+67eSnJYuqch5S0aCQGRMgviHRGLXgwBJSM+WylvX5OKly9gls1/Tl9qba6Xo1nWQOSgJKnQbPkG6rkYQ4RAF7W39OkYJBCOpoBdRmk36YoZNJwLkKBMGI4Z9UUa6WthZ5UVrJrjpMW1XJzdtp6NZMRjQxIQkqUL2ycToIKYFEwSA8FC1nzDif5bxSb93OUwKZGw7gav0s3GddSbvQ3knKAqFKWAfGgaghhGj3dpQI23ttXL7EoTv3OWStXiFhCPJICEzRQKhkTFSsu5undq+KkpvYbkiPop7rmgjTJKH2PFhZLJs3LhWwlFovqT4jhQX35ZDhw5JaVkZ8uqgCaJPLFLPffToq/vKV78qX3rzS5KAWlTumrQ5lTKhwyTv7nywlmVuTq5cvsa8NmxxQVYAlkUxyAk/ji5wDqnBMYqJO4BTHTNEaEM5N3E1rct6Hc+EMO7ti6QAuHCCQqMUUCP9KH4Ke9HVk4el6PJ5yV21XOLTF0k4ZLp6+ORq76JWJWQhmgp8whC8B/mL1F4jLkFthuBjtIPFsU2HDn2KtPSzqCVVpGYE7p7JtKec7Bz8HQF23ik3btyUH/zgB3DLhMrrr79ulOGZ1uIn+wVxo2DiH3xxMriC7qcVPdlmi6xavVo+2P+xDPZ2SARWrqr20+mPo5ljjHka7IV8FawuGO7nS73OSKQkZNh7cyXpxBujQhBoLLn5TrrnFxYGWQppToOQmWxdkG/65QbA4Ius4SAkLgzBDMCKKoPwt4VA3R9D/LgdKj9vyTLS4zBLDIOleY+PIG39tBw+fBB7pwRISkqqZGSkyzqwvaVg5Svh9I0ApWM8+K9/9Sv5xS9+IYc+/Ux/D0G8E2UpdzmIF0aSOiiTBSjnd65OtzvQwDzkr9Eh2tnSirlGyrdWN5m5pYbaPwFTQpv493VDEwwVOyZ8ZACUAfYeO0N7R4zdxzX0F0hiLQIIPeKFe0/AT8d4qXHYtshyWPiCwpaxwTQ0NjyWtI47Y1KjU3oGoW0c2lpPeztivCHbmUClNqmKJDVC7qkAgXwRKFpefj5qXb4uGzZuUJY2SlcOQY+2UE56++tva0pXcXGx3EU0ZxZMCe5W6pm4cRHA0VPjv5lnxk2+jUHmRySC+Ctq63WCbfD0G3FHk4hSQZxTyxhwmA8otA90NIsd6j5thl115XhHsS8AzE4wMYwWFIgrngJ9IFKc/PHuG+SDoC86lJGBQqOi6VPj36w8x0hK5vD1IWKAYcMsKM8n0/pNWY6clWYAX3xOhsOXYLlbcxfulRHZCM3vG9/8JnZbWKV5ffUNDUgbb1EQsfBrElilP5DHfWJ27dopd1A/4cLFC7J6zWq3AxOhoalOStVxcNUYkX/3YhrmyU/wjRvxRKJ6CKMeOSm+XkjfRuM1etHsDN8oxI4iVqgfjtuRftbvZl8ZVIetKNrqEEYbIJFwj0RAa+PeJQHQygKDWIo5UVlOIqzt3FIjgFZ2jgyjJAkmcj9qjvhHILWipuXNGzcw2SVyHuxuDCANhSPYHyp9L4LnehuqdB+X7//930sq8uH+5V/+n9wpuS3Pbt8OU0eBmgJOHD8pZ8+elRg87/kXXsBzUZIH7JQyHo9NmzfL7997T06dOoWdOd/QehBP0lTA8bUK7Vv4caQ6Ta5pbbubHxNgA8xHw1KAZkQKMPP2WjAXYOJtyGaJjEX+LLQjpkINIW8tMy0JFGGFuoV+68oAAAyZSURBVGhWr16DWuFxSj103xXKSUrWOAwAKP6mHIVL9TDm1xTgcT7NAKtWrdS0pr/9u+9Lr2+4RKbk4MHYyLmtWYZAEbn7VCws+JSHvv5nX5d/+qf/qyAcGhqU8vIKuXDhvOQgBGUroiMoKw3B2GkDZWRICrW35JQUjThlGnx1dbXW7XSncBUu4ml2JjdHkaN5UVDZyWpGoEYHk6VNE0gxyTibmbOBiCmywc5DFwpqlUprZZE8t3eXfOXNNyGTxFiL33Fvo+QORkdXmLHMSAWmPcJxBdwukKtI8QJRCGxgjPvv4npkAdOmxecOgdX1wX3ClPINSP+ma4jGzD4AMC83X775jUgtA3T06FHUFQ/ABoypsnjJYgAoRVkjDbYpABRlJVYc2bRpk3uBCWPheWDC3DJ7JBb+L1KnUYSJkPyY7jnDek1KwqWCyR2CQ3gI+6gQElS9/aFxDcLV0draAdMC5BtSHwMvJjQsom0BacqPDvgYf/Bc83xiD4ALBBC8UPNyHGV1mLXbi7w47vLEjOK2thawxSEtP0iQdHej1DMyWKLSoqSykoUtsFl1aorkYJOhNLDDYFRwofzGg7IcAchCHDyX28py54UnyepcBsMDwcTpw6pnBi5X62A/tocHaDiodJ9w6i04GJZ8c8LxNg622N+HghQQdhsRZDcCNX3ysKxU9wKPdbYTiMyvrEn1h9zV39sk/SiCyuwVTbkiewUVpXWbxecJiPT0DOyAfgmAZrr6hCxZskTjvwfA9nivTtizJsLHNaGCmyKSlVKzo5bH+9Cw6W6HW6c6zTZYTCQgBfCDdXkAgW6kVHTPGlKMBSVc7UAWhXND0aD84YvrmqE1UfCdhJ7r0+4HKmfY8lp8JivExHNHAy+wPXzAd4Z/jdbsUtQh6OvpU000MTEBgBjSNjA7hS6Us+cQ9lsHyz76QwGbAXM0XkZFR6mmyGxfykkq/JONsvV4f1LUyRoBa6TcO9XJdX519IwvKTtwB6UxOGKNWKbpk6+nYoL1TS2x/IZuEhtKDHYbVU2mXTbtC+OBU/5vnWO9G/cFbGDQNKrretPQiZ910gFg5v7dgZ2IlVZSkrFjJ0wVg7B1kQ0za5k7e2ZmZSkwhrlAQIl4rQ0gHEPI7xCSTI3C9axmF66gelIg0vHk/9A1vpP40t7meTITGs2GU5bwUesfVinVLBNk7KN1WB12/o6skLHfnV3dynImV/ZcQOR8p5n+5sY9rGtpFkhFo/T+amxCrc2eXmlv71B5ZxT2KJZH7IWWx6IclIkUHBb4eXt+xD9SLlKw5qZm1RiXPPOMhMES726HR4KJK50rk346Ly/Deu2FAZ8BTy7jbdjDqa0NsrIKyuex5pJhR3oMU4Ml6sf4KiaHUo5Dg9gmBRNAMQDqUldXi10N4pVtUe5pam6SWBgrNWTXXBha0hkaBXdQCEacE1kklQVawPsRj75x40Y1ZLrb4XlgUtaBoEXaX5hmDR8XfW8TqChi7MlrUBhOpLm0ncacshV0LBI0uGBKyipkA/YveWxgAqCDAxBuYlIkfT7YK90tpDqj0Ogasf1GWXkZ3CJ3NU78xAnUKS8tM9ghOhYETS8IYS80njJiMy83T9tfhmiCy1euIJBuiaSnp7tlAVvPA5NiBNNDtgBQjIwOSE9LNS2TeHEVU5UmoCat4Tob1kHWAUrhh/jvMgjEtFDHPOIqJ1D44qY9odg7jgoCNiowyJJSGWYfwxoP0O/fv1+OozY5AUx3CY2TpaUl6nNjHSo6ctevXwdABWqxDpZXrKqsQjmhU1qQ7I3X/xpbtSY9UXlpyng6fZgCpicp0M3WwJm+J1RCoF6HhaDYBPLOmktvo/RgiAQjHckf39lQ2IIpS4o2HJObDZkRT5hcbonKPDdWTyGlM0WVmR43p+84dmRT3IiQbhwaMScAHhS8FC84i6lNElT02WVB0N4OV8pO+NuYE8jAuH/8x3+UixcualAcqx5TpmpsalT5iokPEci3e+Xl1+BW2aQhvu542CwV02qctcrcsbGONuIPOkJ3bN+hcghL7vTDSNjbAFUbWl5QOHbyDo0FqJCCTZ6mByZbLZskTQy09AbLaUaxLVZRYdqTQV2sZzzouzVugaA4rGfZjZpPGskJ36Ed2hnfgxGx8NZXviJvwvIehRoE1uINhTD9F9/+tvrqeiGk98F2NsCoBhy0SbHEDo2ctEXR7uSui94z2RwGmdrMt955R9auWyu/+93vpbCwEJpSG+ocdUlfQw9IVz/qOUWjhjdYH4PnyP5QM0lJEF50UQx0d0hba6vKMv7IJHmUQycYWhyjDfywW5T3SJ/m9A1CphsEmLgP7+YtW2Tr1i1oO+oJuBxqGsBLhXDzxVN4Xyuy0nXhu97jSX/2WDBx4GgeWLVqlb5uoFThmdOn5eqFC1KFWty1qAPQVtclwQiLDaRbAqzCB64UL4bRggr54YXtcxAOUq2yiTqOH/EgJaIs5ofnbX5mu6Qi4K0a4SYnT52WXc89J9/73vfUWXsv6n+/3x6xiX/Uyz0aTBwZwynLnSpXSH5evjS++JIGkh06ckSKUI2XMkg/Mlk0ppuyEqhFIEJYbPT2Q6ZpQI1MwxL+aONsgYAuHj/kx73y2muaD8eKwIWF15W6aAkg8/VoT3PPqz0eTM7DSr/VovR0fTEm6JNPPlHNqba2VgXZPoTQsmRhP0J4tZgEbEz1cGP0Q0Z5FCHcYkV8J5jIjnRnAjwjJTkJGz6HwuHbjeehtNw8PqZkp7CfzvzaE/vNCWUfKLR+BcLurl271EZD3xcpVWtrm+amEUDXrxeq05RAo5XZSOd+uF4r5cFLLfOwf/F+DO1ljl8i9qNpgGGS1muqAPP1mEKZ3F3Am+skEFA8+M6wDb7YtyGEe7B0IclQCwTvv/vbv1WqpTlqjO3WXN4HP5wpE1081B8tP5qG6yYnyu0jtxFy0q1+xPm0YaHzaFl6s/EdFZIHH0uPuIITHhjor0mNjCdKh2mB0YqUlxi5+KhyE6mSJQ9Zjln6DMfA2qKjYrQ+eRN2V6A/TnnqPDvYIwWTZax1TnWaf901Zs+acH7auXOnBpjdQPw2qcajHNb+fKSJZHG61Sq8/RzTUMR/095FS3cvcunm29haqU4OymQBynp/lIH1hGvpMaPrIhEZslevXtU9WQiChz2sPDbuSUfCMwCHLDNVmLWiGSsQyMtoXAXILDb8sM9yx+uIG5e9U2jQ0//m/cHEAVqTc3NzkU17W19ke1rQ/SEOgonUiZEMDA+uqqqGCSJQuiHcX7l6BeDq13vzPMpv8xFQM+zqxDXLf/P/YBgLDZ4nT56Ua9euyQ4UMX1YMHG0aFUPQPoUU5ze37dP9uFFgPE5zPV7fu/zqgzMByCREk1LdZr/kJm9h5zUjIwMBVBVVRXKKneoJ/9hU68phBNQwfD4U4tjzBEzSpixuxl5bxs2bXSrjJLZR+bBf2HIz7wyWj74EIj6wyg3MVuWMUb06FPbmyv1sOxyNIAatipvLT7BRNEt8MW9+eUvSz7AxCRPstb5erBnTz2YmPC4GoUwioqKVBBnRi2D+Umt6LE3woONkFpLE7TscYzT1s2AEJPUhZQmVj2hicG4zg/VSrAfHsomMuDtaTieejBxkp+DE5ZbtHJjRMpOdMaS/aWnp2t2rYYIm9m1WpAVB4FEzYwmBYKIzmJa0mlpZ6o4LexMBlADJdU705A6n0HlkalOj3tC6JBllm07qpaUQ31nrDUFZ8pAFvuiHMWsEK3ehu/J0gimVljSGSHJ3wk49cshKC8JrJPVSsjuVHtjo+cZoNgnCuIW8/a8VKfHjSSOBo7X4OUnFaI1nNkifJFlEQgElMXaSIWsg6CyCkjwbwKQQjeFeBpEt27damxEiAucB/1xd+FJ3E8BRIKLN49OdXqsg4fRIBAYxcgXqQ19daRSBBNlImaREFCuB6kR8/f4TnmKmlwkK79B/acQz/s+TceCzMSV5cR+aMjkiyo9v7coErNsjZzgSXhYArkzYJyveZqAxL4ugGmWGbcA5nhHZOa9Dgt0PMcZnPe6Zr79tgCmxzSjTyuAnIdvClNfGJDHhKyn9DYemer0lM6V23f76VI33H46PLuBC2Dy7Plzq9YvgMmtpsOzGzMjmEyjsGf3bKH1f/IRmJLq5KzNzQSoe1ta/uRtd9sHzjR2bOx8Gz9nWxz/ntHOpFs+zJBBoX4Yt51C92kYwTQToObr+GlMF/45wGQNQAe2g2AYhVUy2JoiBdEMACO85pkz/KFRaQHIeMf/XRA120L0ZPseu9jU0qzZyv8f7/G5J0X2MboAAAAASUVORK5CYII=;" parent="1" vertex="1">
                    <mxGeometry x="198" y="50" width="91" height="98.41" as="geometry"/>
                </mxCell>
                <mxCell id="5" value="&lt;b&gt;Source, Build, Test Documents,&lt;br&gt;Artifacts&lt;/b&gt;" style="shape=datastore;whiteSpace=wrap;html=1;fillColor=#0050ef;fontColor=#ffffff;strokeColor=#001DBC;" parent="1" vertex="1">
                    <mxGeometry x="397.08" y="-25" width="77.5" height="89" as="geometry"/>
                </mxCell>
                <mxCell id="17" value="&lt;b style=&quot;&quot;&gt;&lt;font color=&quot;#ffffff&quot; style=&quot;background-color: rgb(0, 0, 255);&quot;&gt;Dashboards&lt;/font&gt;&lt;/b&gt;" style="aspect=fixed;html=1;points=[];align=center;image;fontSize=12;image=img/lib/azure2/other/Azure_Monitor_Dashboard.svg;" parent="1" vertex="1">
                    <mxGeometry x="358.00000000000006" y="-119.99999999999997" width="68" height="63.2" as="geometry"/>
                </mxCell>
                <mxCell id="43" value="" style="edgeStyle=none;html=1;strokeWidth=4;fontColor=#FFFFFF;fillColor=#0050ef;strokeColor=#001DBC;jumpSize=6;" parent="1" target="42" edge="1">
                    <mxGeometry relative="1" as="geometry">
                        <mxPoint x="10" y="320" as="sourcePoint"/>
                    </mxGeometry>
                </mxCell>
                <mxCell id="101" value="" style="edgeStyle=elbowEdgeStyle;elbow=vertical;html=1;strokeWidth=4;fontColor=#0000FF;fillColor=#0050ef;strokeColor=#001DBC;" parent="1" source="30" target="89" edge="1">
                    <mxGeometry relative="1" as="geometry"/>
                </mxCell>
                <mxCell id="30" value="" style="sketch=0;aspect=fixed;html=1;points=[];align=center;image;fontSize=12;image=img/lib/mscae/Docker.svg;fontColor=#FFFFFF;" parent="1" vertex="1">
                    <mxGeometry x="-210" y="299" width="50" height="41" as="geometry"/>
                </mxCell>
                <mxCell id="31" value="&lt;b style=&quot;background-color: rgb(0, 0, 255);&quot;&gt;ToolChain&lt;/b&gt;" style="rounded=0;whiteSpace=wrap;html=1;fontColor=#FFFFFF;fillColor=#0000FF;" parent="1" vertex="1">
                    <mxGeometry x="-200" y="437" width="80" height="40" as="geometry"/>
                </mxCell>
                <mxCell id="34" value="&lt;b style=&quot;background-color: rgb(0, 0, 255);&quot;&gt;git commit&lt;/b&gt;" style="verticalLabelPosition=bottom;html=1;verticalAlign=top;align=center;strokeColor=#001DBC;fillColor=#0050ef;shape=mxgraph.azure.git_repository;fontColor=#ffffff;" parent="1" vertex="1">
                    <mxGeometry x="100" y="269" width="30" height="31" as="geometry"/>
                </mxCell>
                <mxCell id="113" value="" style="edgeStyle=elbowEdgeStyle;elbow=vertical;html=1;strokeWidth=4;fontColor=#000000;fillColor=#0050ef;strokeColor=#001DBC;" parent="1" source="42" target="52" edge="1">
                    <mxGeometry relative="1" as="geometry"/>
                </mxCell>
                <mxCell id="42" value="&lt;b&gt;Local Repo&lt;/b&gt;" style="shape=datastore;whiteSpace=wrap;html=1;fillColor=#0050ef;fontColor=#ffffff;strokeColor=#001DBC;" parent="1" vertex="1">
                    <mxGeometry x="180" y="290.25" width="70" height="65" as="geometry"/>
                </mxCell>
                <mxCell id="49" value="&lt;b style=&quot;background-color: rgb(0, 0, 255);&quot;&gt;git push/pull&lt;/b&gt;" style="verticalLabelPosition=bottom;html=1;verticalAlign=top;align=center;strokeColor=none;fillColor=#0000FF;shape=mxgraph.azure.git_repository;fontColor=#FFFFFF;" parent="1" vertex="1">
                    <mxGeometry x="303.54" y="269" width="36.13" height="30" as="geometry"/>
                </mxCell>
                <mxCell id="165" style="edgeStyle=none;html=1;strokeColor=#0000FF;strokeWidth=5;" parent="1" source="52" edge="1">
                    <mxGeometry relative="1" as="geometry">
                        <mxPoint x="285.5945739746094" y="153.76512908935547" as="targetPoint"/>
                    </mxGeometry>
                </mxCell>
                <mxCell id="52" value="" style="shape=image;verticalLabelPosition=bottom;labelBackgroundColor=default;verticalAlign=top;aspect=fixed;imageAspect=0;image=data:image/png,iVBORw0KGgoAAAANSUhEUgAAAOsAAADvCAYAAAATmyPDAAAABHNCSVQICAgIfAhkiAAAIABJREFUeF7sXQVgFdfS/m7cPYQgIUBwd3e34i6lDysVrBSHogVa3CkUd3d3dwiBAMFiEOLu9mYWUkJyPfdGYOf9+endPXvO2dmdPXNGvpGkEkEkkQMiB3I9B3Ry/QzFCYocEDkgcEAUVvFFEDmQRzggCmseeVDiNEUOiMIqvgMiB/IIB0RhzSMPSpymyAFRWMV3QORAHuGAKKx55EGJ0xQ5IAqr+A6IHMgjHBCFNY88KHGaIgdEYRXfAZEDeYQDorDmkQclTlPkgCis4jsgciCPcEAU1jzyoMRpihwQhVV8B0QO5BEOiMKaRx6UOE2RA6Kwiu+AyIE8wgFRWPPIgxKnKXJAFFbxHRA5kEc4IAprHnlQ4jRFDojCKr4DIgfyCAdEYc0jD0qcpsgBUVjFd0DkQB7hgCiseeRBidMUOSAK6zf6DsTFxeHly5ff6N3nzdsWhTVvPrcszZpx3ceNH4/GTZpgzdq1YMEVKfdzQBTW3P+MND7DoKAg3L51C69oZdXX10e58uXx7t07jY8jdqhZDkjE8hmaZWhu7y0+Ph4tW7XCpk2bUNTZWZjumzdvMGXqVFhaWmL+vHmwsLDI7bfxTc5PXFm/sce+es0atGzZ8j9B5dsvVqwYdmzfjoYNG6JX797Yv3//N8aVvHG74sqaN56TRmZ59do1/Pnnnzh54oTM/qKjozFixAhExcTg7/nz4eTkJLOteCJ7OSAKa/byO8dGiyHhq12nDu7cuQMjQ0OF8wgICEClSpUwe/ZsDBo0SGF7sYH2OSCqwdrncY6PkJCQgDr16mHXzp1SBTVu/QaEN2iC5Lee/801X758eP36NWJjY1G/QQO8ePEix+/jW5+AuLJ+5W8AW3k7d+mC1atWoVq1apnuNsn1MSLbdwR09ehPB8aTJsBo0A9ftHv+/Dmm/vEHXIoXx3hy+ViRIUqk7OeAuLJmP8+zbUQ3Nzf07NUL27dtkyqoqeRfjZk46aOg8qwSEqHjkC/T/EqXLo3dtCqXKlkSHTt2xJWrVzO1EQ9onwOisGqfxzkywukzZ9BvwAAcO3oUJUqUkDqHmPGTkez+Wb016N0dBu3bSW2ro6OD77//HsWKFoWXl5fUNuJB7XKAdB+RviYOpKSkYOKkSQgKDsZ1WgHNzMyk3l78vv1IOHzkv3OpSfEwmTxZatu0gzNnzgSvsv369pXbTjypHQ6IK6t2+JojvYaHh+P7gQPhQMah1StXyhTUxIuXEfPb+M9z1NeD5flzkFjKDoY4dfo0PCjiaeTIkZBIJDlyf9/6oOLK+pW8Aa8pCmn06NHo26cPevbsKfOuEk+fRWT/gZCYmPzXxuiXn6BbqqTMax4+fIjJtOpevXIFRkZGMtuJJ7TLAdEarF3+ar13DsrnFa8XGZK2btmC8hTnK4sSTpxE1MAhJKjGn5qkwuD7fjCdMV3WJfjw4QPatW+P6xRQIQqqTDZlywlRWLOFzdobhA1JY3//HZcuXoStjY3MgVLJ1xpWoTIQn/ixDWmyhkMHwWT8OICMR7KI/bObNmxAqVKlZDURj2cTB0Q1OJsYrY1hpk+fDh9fX9yhDBpj47TVUvpIEgMDmG3eiKjeZBxKlcDw5x9hMnKETEFNTk5Gs+bNMZ38q6KgSudpdh8VV1YtcJxVU44a4hc+KSlJGIGNMuz+4JQ0/stopGErbmhoKDjMLzAwECGhIYiIiEQMxepGRkUhnnyi3FcytdPT0wP7UN2ePMHYMWNgamoqZMrY2trC3t5e+OPfGcfgeSScP4+kGzfJ8kv+VRkrahSNN/CHH9CjRw/06N5dCxwSu1SHA6Kwqsg1FhgWqpCQEARSXihH93h6egq+R84T5Redg+ETEz+qmyygacQCyb85TjeRBNnG2hr58zsiKVkC9+dvEBEZBz0DMxiY2MPQ2Eb40zexFY7p6BrRtXqQ6OgiJTkRqSmJSE6KRVJ8BOJjg5EQE4qEuBDExwTSsWjY21mhTKmiqFmzKqpXqypk2djZ2cGGVGX+WMginvvIUaOEOOLB//ufrGbi8RzggCisSjKdBXEmBbVzNBA7LlpRTigbXmrXqoUiRYr8t4pJW814CF4tV5A7Zd0//yAkLBpWjlXhULwlTC2LQk/fCMmJhNaQmqLkbJRoJtGFLvWblBiDmHAvBHpdQqjfA+giDu3atsXw4cPRgGJ+dXV1v+isbbt26EMWZdGXqgSPs7mJKKwKGL5l61YsWbIEbekF70ShdiyYrG6mXzGldcEq8KHDh7Fu3Tq88QpEsnF5mNuVg4GBJa2UpiTcukhNTZZ2qVaOSSQ6SKX/JSfSapxEAhzhi7gQV5jqBqBi+dIYMnQoFi1ahN6Uz9qH/kTKfRwQhVXGM7l+/Trm/fUXataogeE//iiokMrQjZs3afXdjnNXHiNB1xlW+SvBxLwgLZq8aqYq04XiNiR4rBInJ8cjMT5cUH0T4yJoFY1GCgljcnICfQjS9sp6pEIb0CprTCu4KfQMzWFIqrW+kTWpw2akSschKvQVIgKeITrsKdq3qI42rUlroBWW98Ii5R4OiMKa4Vkw7MlGgjw5fOgQ1hKYmDLJ1/FkTLpFQjp91jw8eRmJgqU6wsy6KFIohE8TxPtUVmcTYkMRG/kOUSEeiA7xIgGNpBWaDVa0Wuub078kjLqmJMiGwspNZi1BaFNS2NjF++go6ieK/g2nY3HQNTKDiWUhmNmVhIlFYRiZ2tPxZPi/PouYUHf079UaPbt3E/JaFVmbNXGfYh/yOSAKazr+sPHof5RozcHqf5DLQtb+M+0Stvq6u7ujS7ceiEgqiOJVhpLxRzMCymOkkgU5LvoDvFy3ITLoBUzNnGFtXY2CEwoIwphCRqasrNY6OmxokpDlOghh4a6IDH8OHdrn5qe9tF2RRgh4PJ+MZWGC9XnRwkW0DfgOJukin+S/WuJZTXNAFNZ0HO3UubMQqtebooGUoc7U/v7zODiW6kbpoBS+pwEDkY6eEcIDHsPHnQLtycJra1MbRsYFoUMr6MfVUkOqdKYbZLMZ7WppHx0e4Yb8+YJw8cIFIfm8e4+eeBtgAp0Eb3T+rgXmEjSMrASBTN2KBzTGAVFYP7GS078aNWqE/ylwV3h7e+PIkSNYtHQNTAp1haVtaXrBs27F5T78Xp9G6PsHMNYvCBPTIjDQ54gkbQln5neIPwYBAZfQr08twdiUZimOiIjAn3PnYdvBxzC3L4vk8Hvo3aUhpk2bRvnqsqOfMo8gHskKB0RhJe5tI2Q/RqefQRFB0oj9qicIZOzosWM4dvw4jCzLoFSdMUhN/mjEkXaNssfYQhvkewv+L8/CzLgYLK0q/2ccUrYPTbRLSYlHePgFTJ/2s+DWyUis8m/cuBETJk2DkX0dUiKSYWfijy0b16KCnHjkjP2Iv9XnwDcvrOz/LEU5mr4+Ppn2YxzgsGfvXgE0jBH//Pz8sP2wO4pU6EeC+inGVn3eIzEhCu6XZ8PCrAysbap/2oNmoUM1L2WDU2TEYVwgtbd8uXJye2GM4ZatW1MQiDfsnBoj3P8+jh/ZiyaNG8u9TjyZdQ588zoMB8LvJYHMaDi5TSiAVQmziI8/ffoUj1xdceBCCJzK9syyoErIleLzfD+eXZ6PQgW702paKUcEVSLRo0isO3Aq9ApvCBxNkaDy68YYw48fPUKXTp2QGBYGHZiA9/re9LETSbsc+KaFlVW7f//9F41pr5pG7Lr5kdTAzZs349KlS+hFBqdVq1fjiiupfYU/t1P3sbAP1P3KHKRGpqBw4R6fjEbq9qb+dWxJ9vc/gBl/9MK5c6SCE6LEftfTaP3PMNz2dsvUMe+cjzy5gIWXNsGYUuy2bdtK6P1DYGxkTh+bVmjQsAOmz5ghxESLpB0OfNNq8MtXrwSDEidVMwUTFMpoCoxnFMBffv5ZMLDwXnXAsBkoWWsk2XqyYuyRUAxvEF7eWglb67owNFQuyELzj12CyMgXtJqGYNWqZahSpQpCY8Lx4/5ZOPnqDgX368KA3DnTGg/Ej/V7w0BXH+/C/THz3D/Y/viMMJ2GhSvi7/ajUS6/i6A6//zLeMTFl6MCV35wdk7An3P+ENVizT846FKa1XQt9Jsnujx79iwc8+dHPcrZjKIAdrYIc1zsQPqXwwl9CcazY49BcKk9OYuqL/lLYwLw9MIMFCrUjYIXzHOAPxJStdmIdAkdvyuDfXt3o2DBgsI8DPQM8ML/NR689wClCICDIC94PsK9Nw9IdvXw3caReBjoSVqAjuB7DouJgAX9d/0SNcknXYy0jy6E8r+WEhGsKSuoAtavX0jqtY8QN22oBKB4DjAjTw75Ta+s4ydMwODBg1HCxQWNyEDyOyVxt6cwuzRq0bIFgvXak58za6tgPGXDuJ2biuIuP9HinHXDlMpvGrlQIyM8oCtxxeXLF1GUgj6k0bvwANRbMQDBMiKvJLTiVrVzwuFBK2BJ0U/pibcUU6ZMoWSFfShQqAt9nN6Rv/Y4njx2Q4ECBaQNJx5TkQPf1J6Vg+s5BYxdMe/fvxfS2wIpf3QEgYDxqppeULl+qWdoMRhRulpWKIXC/V7eWgHnogNzQFB1KLwwEj7eOzB5YisylLnJFFS+x4KW+fBw9G7UdMyMx6RPK+r2bn/gzI/rMgkqX8srLlvN9+1bibCQAxQkYkoJD31QqXJT/P33gqywULz2Ewe+qpWV3TBsteUQQN6PvnvvRy4Zb2Evysh/vOcsVKiQgKObn9RfRpY3oWD1OIrSeUaCG0bWzdq1awsq8Oa99+FYupeQDqcuSSic79n1+bCkjBtDw8zg2er2q8x1HA8cGnILjRsXxaxZM1BaCViWe2RYmnBqOW69e0Z5s5lBRCrZOmFVl0moWEA+xMuzZ88wdNiveOPJSfFlERJ8G02bFsDa1avEcpLKPDwZbfK0sLJwPX/xnIwcF3Hs5GW4v/ARskt09QxpH5YAeysdOBcugPr166MJVflmMDEDgjdJT5wkfvnyZYwYPREJhlVgaJqP/J8RsCtYJ8vhg35vziCePiAWFgxilhXjlIynl+kwB+4nkvbwlsIUfTB71nR06NAhU6uMB6LiY/DP7f2YdX4dksjAJBB92Ipa5IODqRVuvScg8E+RSnoUCLKow28YUO07mdFLrME8IRSL1m3akNBXhoVlecTG+JDF2QNHDu1BcSrDIZLqHMj8+VS9j2y9goPtfQl3aMasWdixcx9sC9WlLJfvEBxpj9T4O6hZtZYAIMZOenk5p7zH4tDBLt264zFBpPB+rHSDzjC1cBL+O6txvuyi8X95hvJfB2gkHFERk1kNjSGBiAg/S6GCCwQjmaJEhLQ+IwhZYu217UgmoxGTDvFmSOW2mP/dbySQulh1fRcmnVmDZB0JksjgNPLoQtwkA9Q/3af/Ny3mJ8cRnyPYmAnjJ+KtVxBpL60pW6egkPVjbFyI8mgLoEzZirh16xqqkhVaJNU4kGdWVv5ac1jgPKrMHa9fDrbOLRHy7g4+vDyF/w3ogmHDhgiJ4ebmii2t7AscQKUlrt9/D8cy/QWOuV+djmJFHOD1Phal640jtw2VRVTTVcMxtu7X/qSVvQl9ML5cyVV7PIpbc4pcRMQTxEQ9oD3jJLJm96bMHGvFF2ZokUThg8efXcHqq9uxots0uJAhKY04JPJloBdarxmCMvlLYHGn8Shh//GjxkK6b98+LF68GG89Q2BgWJlUfgeZ950KwpoKPol5c8cqjMNW+Sa+8gtyvbDyy7Bu/XqsWbcNEallYVu4NoK8rsI01QMjfhqAThRJo2xiOBuXFi5ciA3bjsOsQGtY2n0OwmdDUMDrY3CyDiSrbQmcuPACds7NYcFtVAwtjAonTKb72+Do2F5Lr89HdTcszBVmJiEYNWqQgBvMQGnapKiEGBiRmycuJk6Ikd63by/u3/dEfHw+CpQoTFsMa/q+KYd+ERZ2FSN+7YhJEydqc8pfVd+5VlhZSO8/eIAxYyfCK8iaVN1OiAx+jjj/Uxj6QzchVldZH14iqc6cTD5jzhLE6JShfM0WUgWQk7zDAtwQ63cco38dBEaiv3HvFVKMK8LctiQlZ+dTiPjAhplX99bA2ri6hl+Uj6au+IRAWkVfwsVFD98P6CMUOs6Io6ThgYXuAmjvfffuXRw8cAjHT96gZHYb2otWhL6eOQmo6gkN7LMNCb6OH35oICRQKPsstXFveaXPXCmscQS7uWLlKsycuxrlGk0nwUqAr/t2VCtjil27dimNWsCqMxcE7ty1J8KTnCkAv4/QlyKSUE7pc7Lidu9QA3Nmz8RlinCaSaF0AaFJsCjQFBb5KlJ+6Ue4lI99fTYeJcSHwePacvItKjbsKJoHJ4aD1EYWhpiYt2T4ckON6uWwbNkyuS4Yxf0q14INeGxZX7x4GQ4fPQ0rq/KEjliL9sJ6Sq+g8kbiPXVoyEMqI+mCZUuXiAIrj1l0LtcJa2RkJJq3bIkwSW3YOlZHMO1Lk4LP4NiRA0IFM2WNJpwhw9FIz72TUaTSIEG4VKWYqHf48GQ1li/9G12pIDFn4XAq3TqqFL5j516k6pqTgasmqeb1YWyWn1ZdMlo93QlESQi/SHrggTJzYFiWxMQwwg6+g8iwZ2jajHJHp05GxYoVtZ70zXCpHGI5kwx4r9+8pw9jFboXFyF6iUxP9KdpqzaFP0Z5oF4dA+zZvUcZ9nyzbXKVsDJodY/e/4NRgR6EnWsHj1uLMW5Ebwz/abjS1bbDKVF6DBVounDTC1aFWwvYQqkpqqtpaW8EWzIDva+gkLkXVq5Y9l8tGbZKM14w/z1+/Bj3HjLo9mu8evUUhnr5af9G+LyGVkICuZ6+BVlVGReJPxhpcSi8YiZTeF4crZhhtO/zp9jaAJprFMXrlkDLlo1Qr25dsp6WJQzgrEVQKXq7GVh8OxnvTpw8SfMPo5rKjgQd40BhkVafLtW0gH45I/4AR0Z6oEYNHRzcf0DRdL/Z87lGWC9cvIDeA0fDucpIhPm7wiL1AVYuW0gg1TWVejhcQIlhP1euP0SW4tawIlU1K0L6xaD0MsVFB+CDxwH0/K46xowZTRkzhaXOi1EV3pIAv6KgDM6R5RX+g7+/gK4fG5tAQpkkKLcGhnokEPqwtDAXAjU49awCrZycpqZtcDL+0Dyg/TjXxzl9+iIePvKFoVFhmJm7EOCaiUZUXKnMkXOQV24W2MqVk7Bvz16xCJYUXuUKYT177hy69f4JZRpMwbsnm9CxVTmsWL5cynQzH+LQwd2kPk2fvQRWRdrCrkAtreWGsvEoIvgF3rtvxaxpowW8JsYQzgvEIOVv377F/v0HsWXbXlLpdQTwNROTIp+EU7urpzI84hU2KtoTtWoAWzZvypRjrEwfX3ObHBdWxudt33UIStYZi4cnfsW9e7dQsUIFpXjOuai//DoCxWv+Bst85TQCs6LUwLQKREd44cXVPwk8bIZQFzU3EvuTGemCAc5ev/GmvNMagoBmN8C4aryRCBFYjRsZCyUsRfrMgRwVVh9SExu37o2YRDM0q+VAFsHFQi0WRcT7q9l/LgRsmpOvtOwnB3z2rwycwB0R7IF4/9No16oexeDOgiXFG+cUcQQRayk7d+yg/fMzSlhgYO+igv9Tl9Tbj9bl7OeT6vyQUCy3G75r7yRgN4v0kQM5Jqwx9GJVqVoFEVFJmD1jEgb9738Knwmj3U+fMRse783hUKzlxyijdFdJKFGaEebjov0JxjNY+G/21+rQcX0Bid4eBoREL5SSyILRKdNE2QXh/wiRH66jWT0Xqj7eF82pXKK8cMdMfahxwJ8MQ7eo3OMN0k7u3XejLCJ/8n9aUYBCQSGKiOrWke0268iLakwty5fwMwoNvYfBg+pi1syZSnsBsjxwLu4gR4SVXSC9+/al1C1v7Ca/qaL6n5zOtmDhYmzaeR4lahKCgx7VIv0UCsgPNY7KR0QGPUeKz2XYUvRQIQKlLqqnDxtCeqC6a4ggd4QfBaB7JiUihML/wq1coF+wNsysaNUhqzO/1BpxSVCwu/v5OfRi6dNeNgXDhw0QhNaF8mWzWoqCDVfMB9ZGrly9htOnLlLlOW8YGeaHuUVpMsjkF+5BE7CoueV95WcbHHSRAMZHoC+9L8q67XLL/DU9j2wXVvbjMcAWl7zfQeoso73LIg5q4CCIn379HcVqjoGxqWO6phLyRUbi5dU5KBMfjHm29qihb4h4oaYMwYvGRmNlZBhqGRjhF3NLFKMA9DRPoQEJ1a2EeMwOD8Zd8uo4VhxIvtK6WQ7e1zUwgdv5P+Bo/zHMMCkpHAH+52iefpT90k6IX65erbrg/OeoI155015A1gD4j++Z/xgLimuwnjx5CkeOHqMUvheEd+RA+072tZak642EAPlvgby9tuP4se1C5tS3TNkurBsIe/YRoeMtW7pULt9feHgI6V0S6xawKVBTMIp8JH6hE/Dy5iL0TfLHCDML2AkO+49EGimmRYRiO/krFywyp7ESsXlrHExjdDDewhLfm5ojJW1Vpksi6b9f0Yo7LioGby2KoXi1oYIgqEcSeNxdDlvT2p98qtxLWr2ZRAITCybB9aL+wyiFL578mHrkwqGEAaIEEs4kWv2Tk/XJz8nB/1SXVZd8nbTf5DIX7KPVLiK/enecPVdJCCbmIE4e3yXgY32rlK3CyqpcLyonuJ+yNGT5EjlJfDLBgxw67Q6HEp2ooDC5Rj4JF72tCPK5jvzk75xjaoiK+gb/CR4/QA4hn0Cr5SmTWOzZaYFK5Xj1SkVcggQnzyZi2h9RKB9khH9t7CgN7MtHrkN936PVdn1MLC5YlYVT+V60zyVjkYpo+x/enkVcAOewlpX6Tn2MBEoT4CS6tbRqb7pCwvfHSCs+r8Gqc1JnkrcOJifHkWZxj0p6HMsz7jJNczhbhXUA5Vh279ZNakI0q37HCPF+3OS50LGsL6ymXN37M6Xiw9tzqP/mKBZYUXRQBk5Ek/CxoN7OF4tjBy1RyCEzxkNgKNC1dwQKvNTHemsyNknhJqVs4kFiAqZTXKyvS0fKvGlCK6G0llIupkNcqe3FlUUUG9yRfuUFy6v0+8iNR+PiPqCosx8J7LncOD2tz+mz/qjloXjF5AB9acgFjCLYrn1H/DhmGezKjIJ1/ioZBBXwf3MWbT2PYqkUQaVqpPg+NACPCsfhySMbqYLKt2dPaZ4nD1nirmk89sRGSb1jCu9FZUoDO2rvgMkfzsH7wkQBOYJXdWWIrc1GlvbUPNtYq8y0voo2bER79doKowgulm0f3xpl2xvVpGlTqbVk5s+fjyo1miLUqCuKVh5EQpoxHzIVAV6XUf/tMcy2yOyDZWNRi8APSK6ajKvnrJAUI/8hmhql4jgJ7PiwEETLWfmSSfXubGSKuzZmcLg8iQL095CamrZvlv2acO5rvmLNqMATf/2VE3DZvYlnMnLA1KwYAbCfFfCKvzXKFmHl+ihs9S1Z8jNqHge/16lTH//u9xJweXUFRIXMaiO7ZVxeH8JCa5tMZwNIoCp98EW1HrrYt9uCguapB1oB9QzkC0mZEjqoUEUPO2Kkr67pXwJTErgttnao8O4C/L0uKfV+mFu7IDbuHbWV/+FQqjOx0ZccoGfu4NAWffv9CAZm+5YoW4T10OHD2LBhg+CuCAkJwaTJU9C03VAk2fen4kb101l6v2S9hNwtPvdWYY6ZKXTTyTGL4lNawRoFvkPzAfqoW1cf33UOh33hEOGvcasIHDyeCImudKFNTU5F44b6uEkWWOktPs+Dz5+lAA5X6/KwL1RPqXeDrbbFqg2m4H1+mRSNoFSXYqMvOJBCvuUWBCE7VnBxfSukdWFlZjJ2UjlK9bpx4wZq12uOAxejUKrWKHJdEFB0mqU3E8cpmIECHSZIIlGchDY9PSFXS4dQP3QdSCiGtCD/9Esk7j1IJtcHWYRpMbv/MAk/DI3ChGnRMmWlTi19vEpMgr6cvSWL2bmEWAxNMYdzjV9U2IemwsymBELC7tDeKi7TnYkHss4BPcIlfvI0GVOmTs16Z3mkB61bg4UqbXv2wIcQCR95xJIfk2p/ZtqXZuYW53reOTIIrwo6wSqDQE0kP2pk20SMHWWM2g3CZMs7fQju3LRBCafM/d99nIKh7aLw0LEQEqQYK3ghP5cQh2EplijbcJpUGJjMvX55JDrCGx/cTsPaltJIMmv4ii4XzyvgAGswgYGncO/OITg7OytonfdPa31lPXb8GA4fOw//lOYoXmWYUoLKbI2l+N7hllawlrLyWdO+NDoqFWPHR8kWVO6E2g38IVyqITc4KAXGQt/Speg4Yen+rleQiib/rpag8vBmls5I1AkXkstF0jwH+INubU2Y0M2aCZUWvnbSqrBy+NzpczdRov6fMDHnUEHpgpGRyfzFDPe6iGkWhJaX8ST9Lk3BEJ5eyXj0OKPlOHPjN54pFBSR+fiNm4lwoQiiRPbVpCNWfY/GxWCSgRMcq/5IQRWywyEz9/rlEe65SIW+CAq8KnNfrqgP8bx8DnA2UUpKTcyZO1d+w6/grFaFlX2rUQmE46tiFBBniuj73oSsoL+mhsZ484LiZ+OkifKXT4VsWiRwXx7TIcPT5WuJqG9o9MXHgHvbHhuDUbqOKFz9FyFbR12KiXxHifRbALfZKG/uSygI35blUl2+qX5dqgAkvmzZNnAB7K+ZtCqsXEJB1yANx0d5NsaTuyYflYFgX6c0sqAwoz5UxSxBUUE2urxtK33BpZOe7rmmwN01CX1M0lVCoyX1r8hwzDQtidJ1x0obVoljqRT/Gw73ixNR7O0cPGjigaud7HC0nQNSqNSiMn5aJQYRm2TigAROTn2otu64rzpYQqvC+opgQA0pBU1Vio8NQVl92asaa66/UgB/soIVm1yzWLnc4ouFPZos/V17hWGJtd1/4Yb6JPz9g/yxz7k97asHK72vTn9fEqqv8+L2MlT0no7v7V3YAAAgAElEQVSHnfWwubkd9GmeKTRZVqQPtrOCj9c2VVkhtleSAwwE8Oo1sHzFCiWvyHvNtCqswcFBFKBgKaiaiYnRiIn0QXiQO0I+3EUQqblBvrfov+8TRIo3+UQ/CydHMZlKMSylZ29BiiY6aJsfetJWXxowP8UGb15vQTHEnwMTfP1T0axNBJrHmaCzsYngAfWmsRoFfMCbyj/BoWgL1Z8gzTM63As+F0dgS/X3WFLXArb6HIj/ZVdlLKhGTLl4REW+VDp0UfXJfNtX2FjXJLzpLYSxHPNVMkKjrhsOxmdkv+eUe+n6yJWKFB1AcKgX7GxiYW6Wgnx2BNJlowOKcaB81o/fiZgYwtr1TcbpC/lQuMo0waDDlmCLq9Nw2L4ACbp0VTjtaRwhY9DYcAodpKiJMqV0KYBeF9Wr6mLI/4xhaUooEXpUqTucQgxPJxD2bjSaxptgiZUtONdlV0wk/tSxhXPt3ygdjXfI8sfK+AawWssfnMJ+G7CzbT4YZjBWZWyvS3vlZof8EWhCGT3/wXxmbCX+zgoHYmJ90LKFOdat/YeMel9XQEqWhZUDqrn+KUcprV71F/H5Hbp2NkDXrkYo6sQCSfmnpHqyZVgevfFNRdP2+VCyNtU+ISZ7u+/BiMCb+IH2lfIicrnXCBqjH6mxD+MTUaKcDo1tiCJOegQenYKzZxJx5kw8bFJ1sMDaFmycek5BFf3DIqBXqjOV0mitFEp/prnTHP09L6JG9F5sbGaHxCT595d2fTgZsGvsT4CVYx+VDW+Z5iAeyMQB9iQEhxzCC/ebahXoytRhLjqQJWFl39aQocPw0uMUli3WRYmiOgQz8knLU+7d/cwKevlbfReGGPPZVFPGQYg8CvK5AV23Tdhq54CSFMUky+DEnbCyy562y/GxOBwTjQ8kkEZkBm5oZIxuJqYoQNdvi47ETEp9syB3il3hhp/cMqpOlAYh1TeA4oRbJB/A3FqWQolEVeiIVyx+uWWD/I5tVLlMbKskB5KSoqm4mCdOU2WBr4nUFtZLly9hzpxhFEUUioZ19CgoSbUXVhoT3V+loNfP7eHg3PTjaRLgeAI+C/E8j4I+l9DN2Bj9aKXVp+NpaA/S+tGl87ymJ5PAnyI1eSeV5HhiVhh6xVoJaIgChpOKKu9/41DfDEJePmgtVjW0hYKcAWnTE75mcx9FYItPTYpx5ST1rPNO+kDf7lFf370EJHdUaVjbvMAplYWV1dmjlCS+bt1QLP2bMiBsNbcv0DembJhaZrArO/sL1ZRzQ5OSYqiMxXUkfniARpTR0oL8MYyv5EiOVJ5BAr3vgWQs8iRolOeEl3sjKQV3CbMoxbYMraK1qRZNQY0gGrIxyfz5XJzqSH1n4QMVR6pAh+MBCDLuKUC3iKRZDnB0U/XqIdi+dZNmO87B3lQW1uOkWsye1R3HCY3BUE/TK4IEbbuGIc5m5aeUucycYeiTZAIK42T0IBJeI/pvA1qZohh2kwogm1CIHxeLssxXgYSYIUcVOWMzjyHrCGM/hd8ajxtdLaCXBUFN65+zgsrv+ABDh/+RSv4Ri0nW2OJx1Tnw/v1hXLm0h0pyVFb94lx4hUrCeoFqo4wf3x6XThE2kQLLp7r3OoFwki48GSGoq8oTr628a9XcKp9xbI5mcrv4B860iEUZC3kmr4xXyv8dQAanmrvjkd9pgNbKfsifwdd7NjExHIR5IFiGvwZS2s/q5eWFP+d8j6P7tSeozNBGDY0QHfZWRd7yCq89QeWuXz9Yh8XVwjUqqHyT+Ujul9RLwft3R8X4YRWfuqLmXIng+PF74DqzXwMpLayDBvfHnBnxMDfWtOr7JRvr1tZDXJRv7uEtGYMiQ16hpfEDdHFmw5TmqbOzCcaV9ycX2E3Nd/4N98gIkbq6RTGHav18DaRQWNmgNH/+X+je5SnKl1bYPMs8saGgCUcbHwpmkBXGn+UhVOogIS4Usa7zsbCelWBh1gYxj38pb4Em1o8RG+NFQ2hRS9DGDeRAn8nJHKWkmE+mpsUIJP1UDsxQ80MqfP+40O7af+aidzcygGh3URXuLoXMuuXLhpKlVUpem+bvX26PHALp+2AlLnRzlApbKvdiVU+SwK5taAOLmKNCYWWRZHOAAc+9vLbA23srhbGGCH5veRQZWQhP3d3lNckT5+TfJd3CjJl/EBqgEXQl2SCpNB6vMkUJ2SEu+kPOMpDUX0/XLZhaNoSQKrJnKoxZfLFLQVhFH6bsHXoJRZLKAQZGdy46hMqQ5KNqc0eRlHAcQUFXqK30B8U1aL//foDUvvLSQbnCytW7b97YikJc8ygbyakQBcerbGTS7AQDva+ik9ltfF8yXRqdZoeQ2hu7oXa1sYZp9FEqpRErtY14kHKUKazQIX8rymWtC0dHO0yd2heFCz0VhJYzcNKTnp4Z3J954sOHHF4Asvjg5ArrwUOHMGemCTEmi6OoeLmFJVWGi8ohVZBW1GhKHC8cuBvTq1sIKW7ZTY6GOtjc1BixAbs/ldHI7hnkkfFICzOl/OMP/hUwc+YyKhvaHxv+nQI72/uELOn+Be9sbRvBleBv8zLJFFZWRy9e2IJmjZUvHaEpRhgbSZCUmDOrSmykH0JuTcGOFtYwzOaPVHr+uZjr4fh3Znjv+Q+nQmiKtV9hP6lCITEHhx4Y/st8HD9xEmfPnsacWd1IYPcLxcCYzM1LYd36jXn6/mUK6/0HD6gAkBeS4j/ng2bXnXIqWWZkfu2PHhnigYRHM/GorxNMZHJG+/NIG6EohV9e62WLQN/dog9WAdtZ9XXI1xynToWharUq6N69Ozyeu6FZU32qa3uY+KdD5y6TAFMplDxKMl9JrgvaqrlstAZt3m8cfSB09bPPdcNuIm/3fagctBpnOtgSwkP2q76y+FnUUBfrmlDcs98hUWBlMSndcWPjQoQf3QQupSrh0uXLWLtmNQ4dWEPoh/tpS5OMhw8fKtFL7mwiU1j5purXyxlhDQ4iECwz7Vq1+EvL7iFOHg+4OgqTC97EyvoWMKdk9dxGLR2NMK96OPz9jokCq/DhpEJfzxzWVt3x/cDJmEe1lBo3bowXzx5h4PfdwHV/8yrJjA3u0KEW9u3wITVYu6tMJhcZGXhGjY/GQ/8FxHQTzfOVM3gSIhHscw16vocxuCxVRq9oQf667Ff3Vbk5Ygu2vorB5PsOZAVVA35GlcG+kraciB4ScgcN6ttj29bNhE5iRK6ecFhaUshsHiSZoLjGxkGZcISyfn9UNErQbnXwhnB/nz5LwiuCFH3vl0qwomREoTfyhUci3D0rwaUmuUykIOWrOwcJVQ9PiAuBB1VMLyx5h32t7akglp1wj7ldUPmeeZ79XEwRn+KPOU+uw96uIR37ug1P8fGBlI1kQIAG+SjTSvWaNh9BwKvh/oMAlC5XFk8fu+VZQeV3QKaw2tjEUE6puqLx+Tqu6PaKgLY3b4nFtZtJMDNzobo39eD+3BOPXkTDsUQHcg2RNs5LB5HEVI9KbBB8qSYElfrklLr3HkcR63cdg4tFY10bYxQnFZtf/ly0NVWO0TThQSVNEBD9Ev++1YOtXZ2v2rXDkUre3tthaGxL0D6msLGlvGTj/PRqfKwWrxzTIARPJCa2QP2GTXH+7EnY2GQuHapsXznZTqYaPGKEHeb9oa/WC80gZR6vkrH3YAJc3QgIrXALNGvWlKq9kQM7/8e9aFJSEkVHzcTmvbfh4NKZErAJDFxDxAIaGfwCIb43UDrpProV18V3FCzP+9E8J6BSeKJDju9Jt0Kwx68KrKyrUQvtblWkTCHbDiUnx5Ef9ThVoK+PxPgIhL17SNhK1eijX0LlD1Vs3Ht0JtCAJYsXZdv8NTmQTGH9lYR1/h8UT6Ps200LIxU2x13XZGzYpIvQ8IoYOWIE2rRuLZR6lEWXLl3C6LETEWNQB9YOFQkFn/y6yo6ZvlNanRPjw4UMmWTPA6hhEYyxVa1R2kqPrINf38usR+6tny6H4HxEE3CB4a+ZWBX29dkHh9ItEB98A107Nsa+fWep5m91WjXt6daVe76c4F/E6SlOnjiYJ9kl0xqcEGuQqeyErDtMpj3o6QtJqFQ7BucuDsSuXe9w9vRptG/XTq6gcn9sqXt47yYmD6+CZxdHIfgdpYmRYUAVYkziV7cX4MPlkZhrvwuPu+hgTSM7uJjrfpWCyrzhD9AyCvx3TDpDkDeRqrArz7VNITSQgoU6I8zzEfzfv6RIpUF48/ohIUBEUIX548JWR1mKis6ZYBtl5yevncyVtVu30ti2IQLJDG4kgyR6Oli9Pg7r/gWmTlmG1m3awDYL+wF2WN+8dQtz5i3EoydvYFugNvIVaQx9IyukJKWrc0qrKBsPfJ/tR+T72/i1XDL6uhjDwVhX2ITLnrGMG8nDh2PJiF1j9wcYOPSnlUZzW4ncypLo6LcUjfQMt2/egomJiVDfpmu3vrTC1qf9rKNc1ZhXaHOzW7h963xuvT2585IprG3bNcOuLc+o4niGV5/UXQnt/VauicPFKwXQufMo9O7Vi/YQmgt4Z9Xbk8DC792/TwWYb+Lm3afwfBcNI0YoNLRAfCCBpll4oXMRXTR0NIYRLcQZpyn3rr+ykx8SUtDqaCIM7LqTnU75VSavsiE+zp+Ma6+wc8cWlHBxEZAgxo77HUeOPCUjVH2ZLwMLq6HhNTy8fzlP3rpMYf1t7O9oUGcTWjT6/PBj4iU4cjIRmzY7oFPn/2H4jz8KX7fsoMDAQFy5cgWHjxzBB++3sI/5gII6YShDqq6jmS7sSWJtCOXfUl8HFAePVM4+SPvOpEkyW5w/xTxIKECfEQYjyb8aRdpDCL3wUYSIGJeYihj6i6fztC2ECf0/I7Jom+nrwpb+taSIIiv6l+vjcPep1C6nV3K+vTPv4/DzDSvY5m8vd3XJjmeVHWMIqn/qbWzZsgp169QRhly1ahX+nLsexqb1CXAvMwCdDrnv9PWuUrWIq9kxRY2PIVNYX7x4gZ9/rosdmwzppU2B6/NUjBotwYCB4zB2zBiNT0SdDlltvnHzJq5evYq7d+/Bw+Ml4gmG1E4/Gfb6KbAmWxVbgA2ptAZLaSzt86JIEEMorz0wiYxgiXowIEjTggULECi0C1yKF4OzM6Ej2tqSSmVMe8EkIZb03bt3eEYlQZ65P6OkZ09KMkiAs1ESSptLUCOfBBVt9FGAgokNSLA55osFWchUomGzU5DXv4jC3KfFaNVp8HFwdZiap65JpT3rfhw9sl0QWC6X8YBi2lu1+Y7cMz0yRXtJJPrQ078Ct0fX8tRdpk1WprByA94/Dh3Wn1LGwjF8+FgMG/YjLCwscu2NcimPxMREQcj432T6zcfSLNrkdSWjmUQweunp6VG9GXp49K88a3XGm+V6Ptx3fHw8ZXQkIDQ0FI/d3HDv9i3cuXUTL5+6QZ/8gJXs9NCkkAkaFjZEKSpKxS9SgpajpFLpAzH6ehguRrcjdY+qGnwjFBBwjMD8RuPHYUOFO37v54dq1WqR1teKXIKfS47yFkEiuQT3J3kT60qusPKN84vOfzoZKxJ/Iy+CqrfJAhxEtX/86IXx9/cXinS9fPqYjGGuiHr3EkXM9FDFzgC1HQ1R3lpfsLgnUZ0cTa3ArNo33P8BiTZ96WOUN8PqVOU5a01BQdcweFAjzPtUAZ3DCjt27orXbyiR38RZ6JKFVUf3CkUyXVd9iFxwhUJhzQVz/GqmEEllPBgL6BFV2HNzewyfN69hEOyJginBqGBFtYLIJ1zSSh8WBpxkoL4Ax9EqXmdvOHRsewm5nt8CcRxwKMUBt2/vglUrV9D2xoAybaLRq3dfPHLVoyT1ovRh/Er3rN/CA84t9+hHcCPnzp3DsuUrEBL0CCUMDdDCwRiNaPW1Z4MWWcwEe5kKy69rWBK6ndWHdf7O2btxVoupHFmW9MmSrcJNZhyLPlJRkR4oVSoGx44cFuwOvF3p2KkzXrywg7FJoa/TwJSRD+Jv7XKAy2ZWqFgEbnfNqVq8BIHBqdixIw7ryY8dF5yCH8pZ4KdKFrAjS3SCEuUlWbAPesVg5C1rOBZop93JZ7H3xMQIMtxtJh99HdjZ1yPsKdWD9tNPISExjBTjS2T1fUS1gE3JVpCIevUbEC5zOQpVfI37dy9lccY5c7moBucM3zONOn7CeDRrtBH1anyO3vqYPsiCm4KHT5Ix7EcdlLQ3R76EIAwpb45GBQzl1oVNpZVm6ZNIrHxVll7SGjRmFlatTDPW5AH6ACWE4t37vUIZTkODAshn34j2l+wWVC91MZEE1sbGHcePHaK+7AWjYMfOXciOEEDCeluTk8+2vmSGG2bbDMSBcJPcTx4v/kH9Wl8GNBCgvODHtbfVwbFjFHO9cSOuuL3E+G1ncK3cD+j12BoT74ThjG8sommPy3A46Ym+xPi5rBlqmj5AbKwvnfryfO5hfSrtMa0obncADPTtYWLvhPAEN3LLnBMgWRkoQFXiyvJBQS7o1Kknwbq8Fyz/Bw/sR+vWLVXtKte0F1fWHH4UXGe2ffumWPzXMxRykC5Ml28m4+jJ7lRZfmWm2bo9eYKNGzfh1o3rKBTvh0Y28ahsrw9HChKxpb2uLr3nKRS7XX//e0Rb9KGX9rMrI1NnueAAC6bf+xOwKUqVAB3Kw8t1GySJEkEz0NOncEpVNu6kScTHB8HS4hmuXD6bq92OyrBeFFZluKSFNuwOY9/rcrJcJsROw4/fk9VWCpC6Dklb7caROH/+Dezs7BTOxI18vuvWr6eslAOQxEagTUF99CxjgvIOhqixNQjmBYfm/ggn+maFBt9BKrGkRI2fhPxVt/MTKZKsIOxJPVY16T4pKQpRUUfw+qUHWYVNFfIwtzYQhTUbnkxsbKwQYMIAXs+ePoffBz/BSsnWyqDAx7h2wVBmrdu7bilwezoFv/7yq0oz5eCNMPI1hpDhiiO7Lp0/i7MXzlOe8QeC7WxNECfyg95VGkxLjaOjPREe44YKTWYREEIcIsO88ObuP4SvVJVi0UvSqMrvwZOo/GOpUh9w7CgjHUrXYLR0GxrrVhRWjbHyc0csKLdIOPfu24/Xr2/TnvMVypVLRDFnXeSn8ERLAjHnFN9EAjwwow+9vbX0l4e3ao1ahWPHzsdCwLom6C0lSGz491/KlDpM+8RStNIUV3ml0sQ8lOqDhCou1g/B4TdRpt44UoNNhbn6vTmHMK/7sM/XmPiofGx6cPA1/LN2PDp36qTU8LmtkSisGnwigUFBOHr0KPbvX0VuCA/072OIumQ0YvMIBzmoSmwHLVg8DK9eeiFfvnyqXi6zPavgTZu1oDnext17pFpL6lJoXqFcqx5zxbgPAadRss6vBPHycSsQE+WHtw83wsKoDMzM+YOj2GocGfmCIpy6o3+//jJ5k5tPqG5my813k0Nz40iZfzdsRI0aJQitYiwO7nyP1YtMULc6LZ8kpOoIKt8KG3fnzTHBiJE/C6h8miKOpPJ954bNa83x6G482rQ8hgD/tR8rsqmgWmpqPor64dWzgGNHPLv6NxITooTmJmaOKN94OpKNoqmGzWk6ovhjmJQcSZqM5lI5Fc1b0+dFYc0iRw9TpEylSiWQz248Ht4wQr9uBiSwmb/ynECgKrHhc2BvA/w2+grq1iuHU4S+oQl6+9YTI35lNDxymZBRayF9EJ65mqBf7wPw8d5Ebp53mTJWNDFuVvqgFAzC8uqBp5dn0vaB0R4o6olwn50r9INTtd7weruFVtcvC1JlHC+JEEXMc3EiSsb5ZvwtCmtGjij5m4P123foiHt3BuHiGVIr6+qSj/Djxbr6EqpOI8G1O8mYuygWvQdFod9gJco2kDzzXjZ9zgQLbNliOjh5KBnnz/UjVIQe4NzerNDCxfPRsS1NNt1iZGqYivGjjCmCSg+9up8QUAWjol7mKqGlfCkULtAd7hdmIIqrDH4yFJmaF0KZxpPgF3DyU20b6atscnI0Gadyt+tK3nP9+mEF5N29GufYeLR7zx6sWj0C82bpoGoFBpWj954E7f7DJNy4lYRHj80RF18eeqS+3bl7HU0aR2Hy+C9dBiyQKSTQr98k4/nLZLx+m0KqaSoS4o0JUyiZoEsSUMpFB6VL6VJxaT3Y2aRixkR9XL55CT17VkL3HtMIYf57waKsCnFK3+WLh2A5P3OqIwdg5HegiVHep+ujS9i8eTPd6ynExBQU0ASVUTVVmYs6bRn/2cmpL97e+xdOlfvA0r6s4Hs1MrGDrVMt+HkcJGt3e7J2Z67okJwcBcs8LKyigUmFN4b3en9Mn4JA/41Yt9IcyRSjGxqeimOnk7BqjTlcXKrhl19+QtkyZbB02VJaCVfg37WmKF6EMKNIENi6GxkNePqk4MChFJw8bQkbaye0aEVQrU2bony5cgI8DhuAOOrm+o0b2LN7HyW+P0TrVqH4vp8unApIKCBdB/MWMDhdEZw4cY1whZTfh507fx5HD3XB3OkmwkcmIyWmSNCqgz1u33YVTrGLac6fcwkdZDut+DWFPNmP0DFSLs7YmRZ/M0SLj/cuOFcfAHPrjx8SNjLpBm0Q5hwaWoFylb/8IPn4bCN12U0pf7UWp65216KwKsk6XlErV6mG6dPeoXUjykMlVXftxlgsW2FOEURbBaQCDmmb//cCrF45A4cOmcGlIKW7055QQvvVyDgJfvk1gnCrdAmi9TcS6l9o9TQXkt8VESfTs+o7ddpUHDiwDZs2mKMlleK8cjMRy1fXwdHDhxV18d/50YTyMXHsbpgaZN5Xc6OT55Oo335YtmTxF31ynu6/GzZg/ITJsDCvDwvLcpmKFis9CQ015LQ4X989KFHnZxiZkt+Y+vVx34FLx5aiZatW9KsRuafSAL1TCfFjB2U1eQnPKS+SuGdV4qk9J4ibSpWL0yrphzZUQvDt+xTUaRJGL+zfcHV9QrVU6mP37t2oWbMcCjrMw/0bZihRCDAwlmDb3gS06BiP+Qu7YeLky7Qa+FGV7qkUPmetlKDy9FigHR0dsX7derg/9aSgijlo2lYHHqQ+S1KvK13Rm4Xe1XUvLEylr4ocLHDydCJGjxqZiSucH8qYW29fe+DPP7uRanyY8kfvqhW3m6lzNQ+wz7VAgU5UEmUFYiJ9hC2sjWNNTJ48GW6urlRi5AWtsgHUO98vYXU52udZQWUWiSurgheFQcgnTOiB3dt0qaK2BGv+jcOlKzWxZMkqFC9WDJcvX8HiJbNRofxd/DzUmASBQuUiUrF1ZzwuXC6IFs0Hol/fPoKwaZKCQ0KwZs1aHDi4lKoc1KCV/BDtkTPjLbNGwCo1+4CvXbtOEVSTsWC29EACBpnrP6gUDh68qHCqHJW1Y+cOrF6zGT4+ehToUYHUZAK9yiHy9dmN4rV+hKlVUbx7+Cc83O9RUaoQtG3fHZFRFWGgx6mCD6l8xokcmmHWhxWFVQ4Pz9P+bvacbji634SSmlMwZjy5Cor9SHg/c4QXYeofk/HedxuWLDCDvSVBi4SlYv/hROw7UBgDf/gZ//vhB5XwneRMReYpNhhN++MPLPj7b2EsFkwvLy9cvXaVapFeJDXRlY7HoFABHVrNgSE/GKNUcekK1f5jiQgInoSxv6kGiLd9xw4sWLiYVngrIQxQV5eNadJXb5k3ksUTjALh5b0DpeqORHxsIGaPqkEwuZ3xhBIdWrXpRlpQV9qqBOPfdWuyOFLOXS4KqwzeMwjaTz/Vx9njZhRjm4oKVSJx+PAp1KtXD69evSLfakX6SpujYmldkO0IO/YlYMpUkAV1K9oQ2Hl2Ea+ccVS3ZM3aNYJRy0A/kOZtjD7djSmfkyzOVLIzWcnoqe96RKJ+o7GYPHGSAIuiKj2iZO/vKJQvNjYfGXGaKBVVpOoY8ttL4OWzFRVbzsez86MRHPhBUHsZCLxx07b4Y+o4TBg/Tn4XufisKKxSHs6bN2/Qq1cdHN6ng/uPkjFthjUOHTxLLgMnIad029bfsWW9Pr2QOti6Kx4rVhlgxozVaNmiRbbhKDOw9dJly6lUyU40bBBElmKgSCGCgCEDKIdfSLP0SrnVLw7FxKXi0dNUzJ2vRwWv6hAO70py5aiGksiGKE7bmzR5GuXpvkD+/FxCxTDbBJczbPwI7dAyf0Xs3TAZ9agYGlvXt2zdKtRn7dmjhyI25NrzorBmeDRv3r5Fu7Z1cOaEBIePJeDy1Qb4d/0WIRdyEhkuoqPWYNSvBnB9nIQ1/xDcaNMxGDJ4ULaUEeRV9Nz5c9iwYRPtTy+jXesENG5AOEsEYpjyqTynDsUofvxv9dVQ9v/evJuIjZsJd9myM5VGmUrRQ4VVeomFZIbbt7F2zT84dcaVPmLlySfM8ceqlWtUaVChMaNOBCMw9BJaNKmCA/v2CUdZYBk6R5k0Q9XHzJ4rRGFNx2derdp1aIOOHTworUyfvsTdsHTpUgHDZwy5PI6fOEqGJEeCDrWnLJjiZNWdTA541VYedR4rG3POnD1LQroQNlYPMe43EzgX4no/FHdM0Rjv/ZLJd5uKF2QdfvQwEQvmm8NAR7prhsdngWb6LwCS/iNtJRYqDHySc12qZXTxWgIWLDZAv/5/om+f3mqpx8+ePcNfC/6mnFxXMkKVFtLzuKC29va1EsRQTRwuFXn3zi1UqlhRHbbnumtEYU33SCZPmSLU2Onbty9ZcZv/Z+bnLzLv4dgvmp3EuEGcTD7g+25o2TwEs6dTihiV+OAyJm+9k7F9RzJ9QAhe08COXsx3sLWOxcK/zdCS/MApvJH+ROzSiE+gdDNa1DhS6tChJIqs0kVA0Mf9tplJKq04yShaJBWVq4I+SDpwLqxD/VIhYpIpQypLsnBFDPbtL4hLF6/BSs0oIP7ojB03Dnv3MvJgPforSDPUltDySnoD3btXxaoVK7LzsWltLFFY07GWVTdV0Pm19lSoY7cnbujTpw86dXxHLiEjWJhJ4OmbjORuulkAACAASURBVCE/RiI2zomqI4xC40ZNyAq7gKKNDtELKUH5krrQF0qFMFEkrZEE5y8mYuXKGCpqnYSq1RrSh2gQGjVsRIJiRPmh+sLqmlbJgD8OXC7kydOnuHfvNu05r+Clx2PCRkpB755GKEVhj7t2tyV/78Ys3TqPcejwEfw2dgItroUJ0bCxdtRj+kqFBJ/Dti3z0LJl3sVeSmO2KKxZeu00fzGr4r+OGAljo5MYMVwHxShU0f1lCmbNiUeRon0xaNBQONH+cfacP/Hi+T4MHxaFhnUpoop0V15BUyim8djJeGzfHQ8Dw1q0IvegYI0aFArpopZmwOl/3t7ehLvrgYsXz9DqepCCDqbip+HDs3zz3PcVqlO0fPkaQtJ4Rb7ayrS3ddJoZFRKSiKp3Vfx+NH9LM83pzsQhTWnn8Cn8dmKunPXLmzaNAFjRyWiaUMDchmlYOnqWLx63RhTpswQhHTjps04fXoh+veOQ9dOZGUltZj3oK9IvT14NAE3bxdB1aodMHDgAKXQJXx8fARfJAsOxyVXqFCBCnWxeiqd2E3E8cWtaKXSZNgeu32WrVhOkWCnSGgrEYJFMYrc4jjpT5Yz6dNReJQNWpGRe+Dj5Z1rtCaFk5bRQBRWGYzJzsMcyDBi5DA42F/BX7PNhGT1W/eTMWacCWbNWoI2rVvjxMmTmDF9OH4enog+PaicYXIK/x+pxqmYvyAZbzxLYPqMGWhF7iNliEMPJ06ciAULFnzRnGsajR8/HrNnz872+kYxMTEoULg47F264MOr09DTMSNLd3X6KJiT1sDxvKpbuOPjA/Eh8CTG//YTplPwSF4mUVhz+OkdOnwI48f9D8cOG6IAhTPqU0ZNt97hsLXvhrWr11JAQzJq1KqNHl19MOZXI3BdWUY8fPw8Cd//EIEKlTpg3dp/BNeSKsXD2Ii2c+dOwaKckThGeMiQIVi7dm3GU1r/PWXaNJx+6EjGLXNKOyRY0lcn4PNkH0UglSFomyZCSKMqq21kxHMYOdjj/fO9lHHzWqPwOFpnRoYBNC6s/MXmeqkHDhygAkyPCGg5SIAk4a8mn+OXg404hoaGwgvGAe3Ozs5o0qQJunbtSk70zHmI2c2U7BiP+TFo8GCywJ6lvSkVo6Ist5v3kzBugh7m/7WNjEANsGjxEpw4/jeFM+pQiCBtSEmIuJj10uWJaNd+DBmg+qNY0aIqT5f3xRzgwSl/soit376+vgT9aS+riVaO+77zRd3mg1G4/EBKKyQVmO45laBIY6P8EfzuNkJ97xFivwP5tauRmmyp0DAVFHQVzjUHUE3daPRskoyJE8iolUdJI8LKAnjv3j0hWZkDyrn4sDrEX/SaNWuiW7dugiW0QIEC6nST66/hQtVjxg4hddZd2HfGxKRi3sJ4Kh/RDsuXLfmYDjd1LKpUvo6RFDrI/D18PAG79piicuWBFE44PEsfNRZC/kDyqi2LeJV+Slbh0qVLy2qileO8dy9ZqjQcKk6Crl6GxHpaaXlVDQ98irAProgN9SFV2Yr2t85k3S7wSUtI77LSI6C14yjXZBr5oxPx4vpM3LtxEkXp3vMiZVlY31LEzzRSXXZQMDe7ADRFjIAwc+ZMejF/yrYQPk3NXV4/nJf6w//+R1kwfhTHm0SrRCJiYlPQv/9IDCXV88SJE/jf4CFo1yaO4Es/QpaePGmGsuW60j5ylkqJ5rLmwbHNJUuWlKoCp13DH0728ZajhPjsplm0X951NhaWdoQCIYckugaIDPGg/e0ZxEW+h5G+I0yotKM+JZ0zyBrdAoIir6JkzRGCkEeFv0HTimFYsmihnF5z7ym1hZW/9nsI3qRXr15avTtesatVq6bVMXJL5/yx461CEq14KZ8C9PkYbxU0aXnlQs9FihQRijXJIt6qPH/+XHD5KEN3KFi+bdu2XzRl+FQWeFV918yDouVbwanCkI+qsBITkOhyIEgi/F6eoL/jVCLTiFZcJ5g7loSjy6fEClqZX95djmtnNhLgdykles1dTRTDFMiY73Dys/1LYNHapryKnq4OX1j15L1iWr4Lu1K0QRyBZGlpKdgTZBF/HFTZhrALiCO90pM6mTt8PSfbl3bSRwTBjmZShWVMODU5UQjwKFCiHQlnWyQnxiAuJgjGZunCQQn2xalcT/wy4lecPX1GRk+597D0xEY58+WvMaum69atE1YBVYgfgioWS1X6FtsqzwHeYvDzYyOfNOLsFAYrNzGRnqQu7ZrbFLSvSerWrQsCvK+q3iUHh9BVevomMLN0EjJ+0pOhST68CXTAfjKA5jVSWVj5Ia9evVqp/WkZAg4bOXIkOfFPg1UvdrzzH3+FL1Pdl78pYboT5T9md8xtXntI2pgv833//v1o0KCBYKzilZbRLNgqz0bC5hQbrSzxloiFW5PUj1xLqbGvCL9KbeVP+nRodbVzaoLhP48BW8XzEqm0Z+WvZ+3atRXeHwsfZ6v8QEgJytDChQsxduxYqU3v379PETkUXS5SruWAK+EdVa5cOdP8WPj5w6zqnjWto58JVO6uT2VSi1WDW800ESkHEuLDUCH/I/z7z9o8o+2ptLL+9ttvUm77y0PFCJfo9evXSgsqX122rHyrn8JBxQY5yoF//vlHK+OzC8/z8RbqmxVbzZKBkTWOnnmC02fyzt5VaWHdvn07rl+/LpdjrE6doZtX1ZFeqBBBAYqUJzlwmGBQtWVoZHhXM/0wUoWVfk2V5yGp7uzSGfHbdKXRIZXvXDstld4QLFu2TOEMeC9bvHhxhe0yNpAXOJ6xraq/2ULJQQBs+WSDGKtk7ArhMTlxPDuszezof/ny5X/BImzgYcQCdm3YEFCSJubAwNYeHuRz/PBB8J+ycYjH4Hvk+9U08T2xb51tEjy2NogNYBPHjcCKPZ4wNVcNqUKp+dD+1cihDX4ZOQr7du9S6pKcbKTUnpWR/Pihy7P+MpDYtWvX1L4XXl2lRT6ps2cNCAjAWUJWWLJkiRBZJYtKlCghvGxdunQRjCzyhIaR8jjgXh7VoZWAx0wjfqE57PL3338XPhjSaBwlY8+fP184xfOQxoP011WvXp3yU1f+d4gTuvfu3Svs+aXVwOF74nN//fWXcE2/fv2ED4ci4o8a+9HTaz0cIskfhHPnzmHx4sUK+cHWf97LyvIA1KhRAysUJIa/J8Nk2Yr1ULbRHIrj11zQzX/3T/zxe3US436sJ+Ai52ZSSlh5r7po0SKZ98EPg9Os2PqrLm3btg0nKbOEX1Y2SrBgcDrW3bt3wS+oMsThc39QZgUbrPhaZYn9gXzdpEmTpF7CQscrsTy/JF/IBpU0gWarN7+ovH+XFiyfNtCP9IKwRsKrE6+GiqLAeJXkeTDP+d8qVarI/BCkjcGGvg2Eps/zYB8rJ38rIhZWDotMrylduHBBsBLLux9F/aY/z33xR1UR1SKjZpJNH6rNaquoqVrnJTq68Lg+HS+e3qRyJprXQtSalJSLFG4GeDXdRXmW8sjU1FQIDM8K8Ref98UMqs0veJqbh19GZYhD6LjtHML0VUVQuW8WRkZxb9++vdR4We6P2ygidk8xji//W6lSJQGyVNkXmwVPkaDy+DyXqKgo4aNWq1YthYKafs48L2UEVd59Kns/8vpQ9dzWLVsQ6kd+XI4f1AJxwkDR6mNQpWr1TIEdWhhO7S4VCis/XEWFfNlXxwKrSeKVg1caZcz+rJoxVi+HtmWFjh8/TjG6/TN1waqmMsLKFzKG06BBg4QPjirEqrsyxB9PfiYc5smQqaqQqu1V6VubbTmO2VKHNBTKvtEW6embwbLYQPw2boLUD7a2xlWlX4XCyiucohd1wIABqoyp0bYcUdWDsGB5FdMEsRbBSPzpifd9rOJzZI8i4i0Dq/OqEq9Y5cuXVxgDzKr+sGHD1LIP8HNkN5kyxbBUnb+22/fo3hFBlCKnPUqFmVUxnL8VjGXLl2tvmCz0rNAazGqdvIBvHrtRo0ZZmELWLh01ahQVW/pYnlBWT5w3yysmB6Wz++nIkSMyP0AsNB070otBammacLLV9sGDB4L6OX36dGH/LksdvHjx4hfTSDNayWqf1pgDP1gz4DHY6LRmzRqpY7CqzJk56YnHUNQ/t29KZSU57Y0jd0aPHi2kNCpzXdpYzAfe/6bdE6/w+z7h8krjPWtGPXv2lGm4UyWY/vexv2Pl+nqQODWiFVZ2AoK0eahyzKlcL/y5eJHwTldVcgumSv9ZaavQwMQvNr+8sojdELz6yrOkyro2q8fZ+uns7CwktssitvbOnTv3i6LD7N5o2LChTKsoq+CPHz+WmR7GD/LKlSuyhhSOcx/8geCEB27LAiiN0gxMGc/Vp8p0ivzavEIOpgR2RnVgjYDDN6VRmoEp4znOZuKPkDSSZmDK2I75nlZPNuM5/p3VCKaMfY6iD8ylp/lhQpXOtUkpKQnwe7wAL58/ojTG3FMeUqEanDGTIiOTePXJCUHlebAFWZ6gslrJrpSM1cHZTcOGKFnEqxf3LYtkBcCnta9IoNI3qBDyRiq1wUagFkriIqUfT5Gqyv1y+CdbknlV5hVMVVLGHiCvT1VWZXn9KHuOK737uO9Vtrna7Rg6xrbkYFSvUR0RctA01B5AzQsVCiuvmvJIlg9N3jWaOMeqOa+Y8kjeXpohZDggQRZxkLu6NG/ePEFI0z5i7P7IqmBknAuvouljphmVMONHKeM1ef03u8Ia1CoGia7C3VuWb9XIlOIKrNpjwsTJCreBWR5MyQ4U3rUio4oy7ob0c+EX+ebNm0pOL3Oz77777j9rq7QggPRXsEDKIv7I8AvO2T/SiAMHeE/G+92sEic2MEwNJ3OnuaTY2MO8UyUNLf08Mq5q7CvmMVh95zF478tjcDtNW+qzyo+sXD9l4ji07/E7ilcdSvemhSCJtMmxT9qmDA6f3Yniy1fgtzGjszJtjVyrUFgVpa+pGmp28OBBMKqAupQW9M9wMvKIU76KKgATU1TgmLcAmhBWnucW8hWmEQsQC2pGgZN3P8qcW79+faYxeJyc2qYoM2dV27D/OjX2Ba120VrJxvliPmS4K1KhLxat+ZfiCAqjOyUW5CQpFFZFaIPsg+RwRHkqZfobZD+kJkhR6B8j9ykK1OB5yyO+N20QC4+m1eKM80wbQ9vjZBxX278ZweIIwbf2Hb4GDkVbaHd15ZuhD2vhcv0xbuoSQRMrnYNwMAqFlcPsWGWUpe7y6sDxt8rUEmG1VZHqquzD9vf3l9uU5ysrHlfuhelOKnJZKduP2E6zHKhB4adGCQ9oda1Dq6vyaBbqzoKrqtu59EPzVh1w79aVLCFLqjsHvk6hgYn3VIrAupQ1xvB+ivdPbO5P/6cIq4fnwFEsHE7I+bJM8qzAWWFI+msVWWQ1NY7Yj2oc4MVjypSJCPa5QRdqJwQx44wYdLxg5Qlo2rJNlkM2M/at7G+FwspCpUiYWFjlZeSkTYb9k7wiZvzjuFx5xBE77u7u4Awc9ikyZcc+TBRWeU8lZ89xBXN747fayXWVcWuM52Tg2AcDlURAkdGN2oeVElZFyeS8P1SklvIM+eXnVTLjnyLBS9t/pW+nLeS/9JxUpFGozXXxwixzgN+FX34aAu+nnGSSuQRIlgeQ0YGJeUE89rbFz7/+KqOF9g4rFFZWOTgwXR6xi4BTsLKTOPRNHrFhjI1QnJ2i7h9j64qUeznQiwJBCttRHADtKbONyEbj4NwUxy8H4G8q6qVpi768+1BoYOKLR4wYQdXMZslNPeN8UA6v4/C/7CBFVmrOYuEgAXWrdGfHPYhjZI0DrKlNn/I7Bv68EM4Vsy+ZhFPqCpbqhEUUPVaKyot0aNcuW7ZlCldWZiernIrySvkLM2bMmGz70ihyy7A1mPGBRMpZDmh75eFQTlNdX6plo730OWkcTKX3y7nyMPTuNwy3sxA3IK1vWceUEla+mLNbFBEHPHBgenYQZ9Aoiq7izBWRco4DnM4nr/iVJmbGe9fjRw7C130rGZt0NdGl0n2wHbpis7/QtdewLAX6KDug0sLavXt3AQBaETEIOGfpKGNwUtSXvPMcTK/ow8CQMBywL8tHnLF/jljaunVrxsPibxkcYAOcvNhwdq9lh4uNY69dCqQgOsJXxky1d5gFtmCF4Rg49DeN5VTLmq3SwspfMI7rVZRxwmoPp9WxcWbq1KnCF0cW8jlDlHDgAmP9qEOc/ibPYstfdZ4Dt+Nc0fRwLzxPztVl3+/u3buFMpOFCxcGB/8fO3ZMnel8c9ewS08e/zk+mVExpYWkMsQMu+I0QRyltZVyc8N8z2T76srzZ5QJI8eu6Ni1j0JUlazcr1IGprQBuHYqp31xwLgi4gfEpe75jwWdI6F4n8lGAf7a8sNia21W9jTcH6fBPXz4UOZ0uH9G0OM/frH4I8L/ck4rC6s04lo+XBEt46rBfbHlW1EYIt8f3z/fK/ehyDWVfg5pYyjyW6cfQ52QQo7OUjRGWiKAvPlz7LQ8zCtO1mdcYda22ILv5eUl5PdyogSviJpC+OAPbeMaBXDP0x0WttlfIc7IxB6Sgv1RrmIluLs91lhMefp3Q2HyecaXmVerBWSynpCNFaTZcMWIhdKIv94sgIrifKVdK+sYCzNjKPELwMQv49ChQwWkRdYSWMWX95HhKC1OgOB++GVmOE/uiy3msgDN2Vc9cOBAASWSs33Ymi1Pfef+2fDHHwS2eKeNwUnusrCbGSViOUGWcMI5fyj5gylvDMYd5j/Oz2VDDie6ZyRO05P3sczYPv1v/sgwIoemLPbcV4XqrVCs5gSkJisGuMs8t1Ty2EqE/6nru01IiIB+yE5cunBWoRaaeXz5R5RWg9O6YQaPHz9eqEKWG/In+YVlH6+iKCv5bPjyLK866S3JvAJx4SVOcUsD0ZbXH6eocTuGVGUB4cJcnBHDwiGL+IPAGMNpQN3yhIj7YOHm/ngMVvEZ94nLWPDKJYv4Y7N27Vrho8O+Z0Vj8MvP98z4wenxkNP336FDB1nDKTzOH355IAAKO8jQgD8so37qiSB1qs9xX1S/9cWthQgLVB94z8DAAuG69dBvwPcK+avq/aksrGkD8FeW8YYY3FvbpCgfk1UsRofntDhNEcOkyFs9NTWOpvuRp7JmZSxZ/bKGxWDp6hJ/YKTtadXtbzAF8MQGnhMET2WibU6xKoPg5boF8XHyM7Lk9W1lXwGPPG0whMJkNUlq3NHn4RkNgVH4eUXgPFNFrhRlJ84vBqfcsYrFfc+cOVPhpZxozqsY+4PVXWU5DJLToDZt2iQkpct6QRVO5htqwNrVzp07hf2oKsS85Wu49KSiFV6Vfm1tbbF6+QL4exJ4OI2hKhkYWsKheEs8uz5Pres/jpcK+8INcJlMKSPI5akp95VKBiZZN86lJRjBgVUzTrJmY44yJRrS98cPjzNq2CrLkVC872LLsyoCw0YsTtdjFXTixIkCaLgyjOKMHi4xwZCmrFZLM9jwi5XVj5G0ftN4wPepKCpLFv/TH89oFEt/juev7hjykvAZeI0NRZyQwZhQigxXbLzj/TsnkivyLihzzxnbtCCk/+jBg5CYvzr0SfhUIwkci7eG/9tzeHRuHCo3+1jaRLU+qDWhWOSjsMRjl0/BnuCHpk6ZonIXGS9Q2cCUsQNpv1l9ZEMM567yv2y55H1cmrrDD4hXMX55WMVlAwOXhVCESiFtLHnHeFzem/Heiz8k/MdzY4HksXhMruHDX2ORNMMBBoT39vYWDH5sKOP9P6++vEXhPWWBAgUE/mubPMja3LzjKEocH6AWOHhcdADcLoynVbYNipTvo1Yfwj3SR9iLkg1GDWqI32XUIFaWF1oRVmUHF9uJHNAmB7pRII9HSCUC7y6q+jAkZD7PDwBRd2Hs0B52hck2Qx96dUiiqw9P1w2YNPI7/ExuQXUpS3tWdQcVrxM5kB0cWLp0KcJ9T1FWjhphiCSYTmV7IBkWyGf4BNHh3mpPOTU5Ec6VBmHOon3YS6Do6houRWFV+xGIF+Z2DhQklXtw/9aEKCG/CLis+2Ahy1/mB8JdKokor22Uiac+hAz7fYtWGYbhI2fj1q1bsoaUe1wUVrnsEU/mdQ6MolDTuKDLJGjGat2KkWl+nLn+Ad/374mHp3+loAn1VGEenAtrlaj9G9p3GZSpBIoykxOFVRkuiW3yLAfYkLhiyZ+0Z9ysniuG1GHHkl2we99x7N/1L3zcqM5tFgRWQrBnpetPw5BfZuKQiimcooEpz76G4sSV5QDHOFenuHaDQkNgYGil7GVftIsI8UC1Il4o4lwE24+8Rf5ibWjvmQWQcQra8H60FJvXzkGzZs2UmpO4sirFJrFRXuYAB8lco+QBv+c7KLBJvdACS7uyOHnBHb179kKdsikI9rubNZaQoDtVHoFeA37GC6ovrAyJwqoMl8Q2eZ4DHNTRokEJhPrLLw8q60Z5v1m8+i9o3rK9ECftaPSUMrAiZTVX7jip2MVrTkTNOk1wh+K1FZEorIo4JJ7/ajiwfBkVSY64qp4rh7ggkejC3KkzVq5ahc0b1yHgKfWnTgxyOo7q0EpftvFf6NRjCM5fuCCX13l6z8p5pRlzUlnl4UgZkT5ygKOJOOOHo4m4mDKHhX7LtGbtGvy54iIKlVSPDyxcr+4twZE9y4QIvKatesKl9njoSNRTr9OeBVU/wvsnq7Bp7Vw0adxY6iNSS1g58JrTs7huzaNHj4TcS45J5WRwjvfkkDKOpZUXpyp1Nioe/Ouvv4R0vfRUo0YNjePhcKyrMjV6OPaXrY+chKDte1eGVRwXzdXFOTc3jRgFox2h8X3LVL9xc6TYE7wuvcfqUFJiFAwj9uDS+TM4eOgQfp++jSzG3akr9d06PA+2Mnve/wtnju1ABQJVyEgqfw44YLs5BUqzsHLcZ8ZoDA5I56RrDo4/RDciKxE640TU+S2tGp08mBF1xuBrOFG7XLlyCpMC+N45GZyTtY8fP57jKzxD5qQXVL6X8+fPf/PCuujvuWjetg/KN5qulnwxjIt/XGnMIhSU6ZSQwJlnRy6fRf6ibNVVPdMn7b3kpPciVX9D/UYtcP3KOZSndy49qbRnnTZtmgCjwgnOaZAfX/RGP9JgSRjxgFc+bRL3zxk+2sjcSD9v/gCklYdMQ+yT9i+vwJxEzh8RRl989uyZNm9fYd+s3WTMBS5NOLffOlWnLKH+vdogNko2GIAiHtkWrIt1mw8LCQsLqLB13fKUvBL4VNFlCs+zOl2m4Tw0a90T5+jDmp6UVoNnzJgBxtNJT7zatG7dWqiDyqvsmzdvhPxTznRh4ho12QEHypAmaWPWrVsX16+rF172xc1J+XHq1Cm0adPmvzOsPfBvvncen8+nT6R2dnYWkBa0/TGRMtX/DjFKBaejccYRa0QMyaMN7UPeHHLjOYYDKlGmKopUn0RbFvUQ/RPiw6EXuoPU4XOIoqyydh26ItW+r2Yq21E8c7zXUty/87nwuFJqMEOHzJ//ZV4f7xUZDC1j8Sbet/7++++58flkeU4Zq5SzlpEe7uT27dvg4ltpAsv7XEZuZLU4p6hVq1bgP5G+5ACn6c2aPh7z1lxHviJN1MqoMTCyhk9YPhwgvOw+vXtjz87NqFK9DkrUm0050YZZYrmv+z4smD7miz4UqsGs1nKycHpEPwbPYljSjILKPbP6p4hYhWQrLr/c/MfJ4sokiXMbVsF55eT9mDLXpM2F74NXQF7pbty4Aa6crihJWtF9ZDzPyBnVqXZoemIsYmmUxgMO6mYAM869zYiYwPOT9ZfWJ18jrQ3fL4+R8VzGMdLzh9uy6n7z5k3BoMa/09sk+L8z9pf2O2M7/p32l/7+pV2f/lppvNLWMYaAcTR5gaSEKPWGoMCGIuV6U3D+VMGGw8B9D+/fwtv/t3f+QV5VVQA/SKFDZSpjKY6ShgWDoys/lFVQ0qSpSH6UAwQzxjo47a5WDKPjrIHmKCk460BS/yQDRhZTZDmKyoKhRBRigaySjYq4KI5i+aPlR6y8zufB/c559/ve98dbd1jbe2Z24Pvevffdd947v887Z/NC4bO4vICb6pgDrfItrX5ioSyx8uG2dVLAkXAcZQGq8bhx4+LyKr69xIfokyZNiu0/PvgeOXJk/EeFB+wrQgtZRcUWqF3AOFTuUaNGxYjB64wdXe5hI91Qj/HSDh48OK4bRVUKuuMRysh6gbPusdRxvxpEGkObNWtWXI0QHNTW1gqVFvgQHnsSZwUAA+MYe/b/OE4oBqC6hX+e3zAB1vbP0bPIB/wLePEpAkB5HnAFnsHPVJUYrtQorT399fjNfqy3HG8z6/GHVuHOUYyAj/39NXDGHS1YpJ/R7di6NI6h5oFD+jXNWUPrZZZW4AQGqGZ5+y3Xyc5WsqWqX5M5r25bKn9YuaIoolBWDabspq0Li5rrq4P2JimeRSVAH1gHyZNWfQ9iwVCnABsvCrYfIQcHP9ayGE1NTYklmUPIKO3lswORoqiB2Cg+wDzYK8Syfv36TlcwgICoA2XB78mDVrJmjRb08gCHHaVwUKPx2ELkaXtmmisvAw7QMrBHfYCBUSnRP+d3c4dQ6LaQVgsZ/FAAHe2gpaUlrvjor8d18YI7hsdzZiwS1AHaDPY7+KGSRDUakX9fH/bv82vOlxlTL5VHNm4TUgrzQN9P9peNrQflAa1FhTp8rfYQpp/wI39aJyefMbqqJfe9/7qcecr+OPrgQ1nJCte1kst5Rf2FSv2G2H1CrampiQuh4bSyG4MLUyfYAdx43rx5ieUJB1Foa4wGj0uVQ+UlI0navfS85NTmxclCMTYHxIpXr15d6hZSz3FfJB0Qzlq3bl28H6v2Ut3fto2E4VhCRepgTlCT2BV546VH8iIVWdevMzx79uz4pSd9jlgu5sA999xT2B9OL6Qy8zExkLxZgClClUpHqOyhrq4u9k9YO5s9Q9QUBFFRGQAADH5JREFUkoORWm0BbQem6UJ0aY212QeANsPeHE6oB4VT8mjHfWfP+oG8s3Ol7jBf2IWE/lMHjpO5ty2Q/VrcHVigkYqzP7tb9rW/kYX+4uMqVf/d9pis+PWKVBMTQiwJ+iKgQhf+tBp/yfFpJ7WIWWINVfcSw1T1jfQFKIxRTh1xDFBHVmKuqmaRvqyF+SqRE3NVMhfOaTnRxNwZM2YUzikBR0q8hfPqKU3beuKYVjxMrGfxYv/P/lUFjJSYC/PVnEjsU9X+xNra4iOxtjKQ+LxKs8RxNS0S66oEi1RlLYzR0p6JdZXIEvO1qFnhvDLKxDn1+BfOsXdN8CicV+ZaOKdmRGKetiApnLvkkkuKcKSMI7GueqPjMRpJSOz1aP5oWdMSDTh3SlT7zV9GtZOW5/o7b+z8aPzEiZFqDvGt8MxPOvnU6ILxP69ovSGXzommTsumr7KS1bfB8qgw9L6x4HN7OKw9pvcZF5YGkFgWqJ5oC6thL2VlC6HCWaBcqQPsadvGEu7PdTsLqIQUHSfWakM22OIWd1bN55qjRyfVpa1bDyecU0TbajNOmrt9IsmdnY+NqQyp4lug3KoFHIkOkJ624z2JIc7L7acsumeE6uvsU+uvABeovwCtNJwqjubRXWDMpWPkE4da5cDePbm3RFf0Pz+zW57efDgpH5/Elr9tkh2b5mlLyg9Krturdx/516uPyU8WLsocV5ZYcQhY4KFVC3gXLaAS+4DaZsElFLiHzDleoGqC+qjwFmaqLYHjhD9UMtv2AVus2o5nOGMIU9mq9BA8sWW/djHeZ8sMKJnq9sK/jY2Nib26nGeI3xZSh+Btp7vly5cXfArEvNMcWj6u3W/UVwuYFm5PePUJ2Tnguo7Z+IzFEStE6NacPn16Yi4+Ae6f9h0ADJfrdRcAb2vV1n775d/kcgzF96H3N/CC78n0q+sL7VxOV0fi/UsWy+vPLSv5ed6eXRukvu7KkpU2yxIr3lNeGAd5Wjn6yfZpNWj9avqOcKyjwqXzVfqAfQeNy2eG+0M81nHGmlkSOut6MA6yqH6rRbCsbYqUpp2FBd8xg53IPtyfj1dLdDAE+wwoBEZpV9awDjZLIFl7tsf9Svgkdtg9+c4oNxd73/anodEUz4kEDIdTvMi2Uj/EynsA3gE8+qX8DZXs/8MeE2t44y+St9oOe+Rzra8+h94njZG7NHrhACbaUDdWdv1jpT7HYpLjG9u9b6yR75ap4F/WG0xIBXXOPQQcKrx4WTV+4cZTpkyJ94nDhV4mfp1YF3awyPAbS7kvZ3wCqibMAlOwoaBrNK7mO2zcHiCGvJlGSFEaZ1Gg3AEEhhfa7d9nRkh2iplnASEtB3Tvg0Bci0TwR4iHl92100Qijh07Nmu51ON+0fL6+vrMyvpEAFzmE3jCEdXc3ByvS3gPlZrUT4CxaAMwD7KnAGLJPAvHAAjTdUe4Sx1+jw8fpb4mSo/mS/Tvd6p2W/zVvRon3SwjjsTdb9IkopdeulY2/vM57XI32Nx6L3lLpeqCeT9MmB1puClLrBANXBQvHgDRqhMhRr7l9m5xOCfhEgBPIYDn19qeNEay9hFjfPuJEA5guS/cmxfDD4fEA1MANdX2fuWLHFIguwK4H/DkiAc88H9iigB7Bl9OFYZ48YRXCtj0tp8psW4rffEgVwvWJmUu14DBVgJ41fFCu/uhEv8TR77H5NmxN5g298gYTBI87o7ZEsLqjsAzuuO2JpnRME/OHl6vW6zeQxypfXpmTZ02+26QZzZvKtwmzGzo8Asl6jdIVz28bkdHu+x6dom2xCxf+b9YJnsYxMFEkyZLmIQ6sP/SYnOEEnzwHRIPanqWBWKvNjbLS++IGYnhgIeObefUN2wo1MAsdY0EDAvYS77qCwNgP77K7N9Dud9IKes0Qo3HGeYAJ5F11vHyoj77AJGnNZeePHlyYijPBHvVQbVSlXmoohZoOm19BJwDt8S/fYARW7t81apVBcJ1NjbMwDmasGVJTwV4pqRqdlf4muZ7f+OKIXIwb2aT3ljvjx0n7X0uliZtKeLgWNXA1q5+VF7ccLN0HGyPVeI9O9epIPtjRSZBWcnKhQjUEzh3HlqO4dWDU5IcjhOKoD72ji8hGYsKhyRxLwKeTpwyLjvmp/rlvbVN8RI6iUoM0mZMkZnDy8DDRkITfLaAXYQqDnEQY+WFYm8ACQsE54nroaqh0mNfYi9iU/kvr1sXaYAK5xMRMWAcYdg6eKXpqEbfHwdIFaQ7ti2SFU8trTIBiAAC5EMAVGJUW5gg7RthVH5iCTYxaztG5yQ4a6ExEF/1AQIhjmmBe+UP8wa1d/HixQVnCF3gyTrimYJ/GAf4Aaec414ccL+MdZ8pWsZNkgkAoWIuwQhd4gvHUf/9KIPd49H+P6bLbbfOlS8OGS7nXj5fiar6TCScTSeeMkzu+8Xdco2aDC4OzbuytuVhrQzRKJ8eMEH6f6pNLtDnVxGotKoI9OWKVFJFeiNFcTS9UOoxG5NVSRKpDZk6zs5XT3FEDNSCqmaZ84iV6otTdF5f6ngJdfQk4qlZe1X7KhMPKvkjfbmKruHWUsZRmKspkKnj1CEUj9Hc4dTz/r64pg+qZhbNVY0nUgePPzRS7SPzWanNGSnBxnNUOkfK0IrW9fejKaSRElziOipNU+cp0y6M03acRWM0OlC03+54YMnSpdEXRl7XqdjrhROXRcMvvChSZpa4xfuWLIlO6PeZSGsvVXzrZdVgR/HYIGSnkN7mYpu+zcpvuBIOiOuvvz5u3OuALCXSzpAAvtOIeTgv6OTG+n5OMWluSFJ7Pf6PPUhKHbYWa9o/d108cUhyHEtp1+UYkqmc/eiv7/9210Oa++esFEEbQHNgjI8/jnHv2H9pdjkSy18bHNh4cQHh+h9/rP3txk2bNi22hZGA/n74zd7RrAhH+efRCri+XRc8W884UtTfR2f6udr76+r/f0efU5/2JzX2mv4xRiXXpwzMm/vOkOXa0dBCnWpZjz/6cMEBVclaFX/PahfDVkQtRD1CtUXNRG3igeOBxVbJcsuj/hEiwPuLKoeaygNHbYUJZAHzUOmcowvVG5UWW5F1rFrIGqh5NocZO5frkkTAHx5qrstefUeLvwdUdOYqC/RPxb+5Bz4qAMCHH6riJXcOJsawDio09wIeWJ8AOvePLVjqe1Pi3Da5AmJy1443cAS4Bmp+2p7ZD0RlmQjPEPMB3LB/8MN+ynXZAy/WZ8Bzt7F597zdvri2JWa75+74f7rRXfb1mfK5mgY5pO00coGq0a/+vVmeWrNCzjI+mGrXykWs1V4kjA8Y+Chj4IYbb5SH1v9X+vWv0LZMudm9778mZ/T9izz0e+1MlxMqVoNzrh+mBQx85DEwd84cOaZdm0mpmZIX+h5/ujy749j4y5y8ECRrXsyFeT0KA9RD+nbdHBk44rpcVSVAFuVGd266VV54fktmUlEppOZnFaVWDecCBv7PMEAt31EjTpODBw5/9J/n9mhKdfLgmXKr1jPLA0Gy5sFamNMjMfC2OgPPqblYBgy7STXiilIUEnj64IP9svvZZmndsjF2xFYLQbJWi7EwvsdioJ9GD+Y2fV/2tD2lWYjVpSFSruXNl1fJwuY7chEqSA+Stce+euHG82Lg8i9fIe8eN6Gq9pHvvb1dhg5ok/uXLct72UCsuTEXJvZYDJCIU3vZVBlUe4N+mFP6o3KQdEyfvtK2aa5s3/bXkvXLyiE0qMHlMBTOBwx4GCALb3bjVfLmzicrwE0kL2yYLz+7d36nCDUm+gquFoYEDAQMeBhobKiXj+9/Om4mlQ295D/v7JCrrhwhX9W0185CsFk7i8Ewv8digJzzsRMa5fNDGxQHxUTb0bFXdm+5Q55r3SbHaypuZyFI1s5iMMzvsRjgE8FRw06R9ndfKcIBpVpe275CnljT8qEQKhcIxFqE5nAgYKByDDygX9MceGOlfjBhHU2Rhnc2yMSvDErUoap81fSRgVjT8RKOBgxUhAE+B739R03Stl2rfhwphnboUIec0Pt5uevO8qVaKrrIkUGBWKvBVhgbMJCCARpIjRlxoux7ry0u1fLi5kVy9523FH2XnTK1qkPBwVQVusLggIF0DOzS73rPG/YlOe2cq2XyZb3kZq83U/qs6o4GYq0OX2F0wEAmBlb+7kGp14J+r7z0YqdjqmkXCcSahpVwLGAgBwaonImEHaiN07oCArF2BVbDmgEDXYCB4GDqAqSGJQMGugIDgVi7AqthzYCBLsDA/wCoR/A5FivAvAAAAABJRU5ErkJggg==;" parent="1" vertex="1">
                    <mxGeometry x="400" y="288" width="74.58" height="75.86" as="geometry"/>
                </mxCell>
                <mxCell id="70" value="" style="edgeStyle=none;html=1;strokeWidth=2;fontColor=#FFFFFF;" parent="1" source="57" target="68" edge="1">
                    <mxGeometry relative="1" as="geometry"/>
                </mxCell>
                <mxCell id="57" value="&lt;font style=&quot;background-color: rgb(255, 255, 255);&quot; color=&quot;#0000ff&quot;&gt;&lt;b&gt;Developer/QA&lt;/b&gt;&lt;/font&gt;" style="html=1;verticalLabelPosition=bottom;align=center;labelBackgroundColor=#ffffff;verticalAlign=top;strokeWidth=2;strokeColor=#0080F0;shadow=0;dashed=0;shape=mxgraph.ios7.icons.user;fontColor=#FFFFFF;" parent="1" vertex="1">
                    <mxGeometry x="-20" y="305.51" width="30" height="34.49" as="geometry"/>
                </mxCell>
                <mxCell id="68" value="&lt;b style=&quot;&quot;&gt;&lt;font style=&quot;background-color: rgb(255, 255, 255);&quot; color=&quot;#0000ff&quot;&gt;Developers/QAs&lt;/font&gt;&lt;/b&gt;" style="outlineConnect=0;dashed=0;verticalLabelPosition=bottom;verticalAlign=top;align=center;html=1;shape=mxgraph.aws3.users;fillColor=#D2D3D3;gradientColor=none;labelBackgroundColor=#FFFFFF;strokeColor=#0000FF;fontColor=#FFFFFF;" parent="1" vertex="1">
                    <mxGeometry x="-34" y="416" width="58" height="40" as="geometry"/>
                </mxCell>
                <mxCell id="69" value="" style="endArrow=classic;startArrow=classic;html=1;strokeWidth=4;fillColor=#0050ef;strokeColor=#001DBC;" parent="1" source="68" edge="1">
                    <mxGeometry width="50" height="50" relative="1" as="geometry">
                        <mxPoint x="-10" y="330" as="sourcePoint"/>
                        <mxPoint x="-5" y="360" as="targetPoint"/>
                        <Array as="points"/>
                    </mxGeometry>
                </mxCell>
                <mxCell id="89" value="&lt;b&gt;&lt;font color=&quot;#0000ff&quot;&gt;docker Artifactory&lt;/font&gt;&lt;/b&gt;" style="sketch=0;html=1;aspect=fixed;strokeColor=none;shadow=0;align=center;verticalAlign=top;fillColor=#3B8DF1;shape=mxgraph.gcp2.repository_3;labelBackgroundColor=#FFFFFF;fontColor=#000000;" parent="1" vertex="1">
                    <mxGeometry x="-310" y="288" width="60" height="60" as="geometry"/>
                </mxCell>
                <mxCell id="92" value="&lt;b&gt;&lt;font color=&quot;#0000ff&quot;&gt;GCC/IAR CI builds&lt;/font&gt;&lt;/b&gt;" style="outlineConnect=0;dashed=0;verticalLabelPosition=bottom;verticalAlign=top;align=center;html=1;shape=mxgraph.aws3.codebuild;fillColor=#759C3E;gradientColor=none;labelBackgroundColor=#FFFFFF;strokeColor=#FFFFFF;fontColor=#000000;" parent="1" vertex="1">
                    <mxGeometry x="-210" y="-190" width="40" height="50" as="geometry"/>
                </mxCell>
                <mxCell id="93" value="&lt;b&gt;&lt;font color=&quot;#0000ff&quot;&gt;Physical HW Board&lt;/font&gt;&lt;/b&gt;" style="sketch=0;outlineConnect=0;fontColor=#232F3E;gradientColor=none;fillColor=#3F8624;strokeColor=none;dashed=0;verticalLabelPosition=bottom;verticalAlign=top;align=center;html=1;fontSize=12;fontStyle=0;aspect=fixed;pointerEvents=1;shape=mxgraph.aws4.hardware_board;labelBackgroundColor=#FFFFFF;" parent="1" vertex="1">
                    <mxGeometry x="-96" y="-25" width="60" height="60" as="geometry"/>
                </mxCell>
                <mxCell id="99" value="" style="edgeStyle=elbowEdgeStyle;elbow=vertical;html=1;strokeWidth=4;fontColor=#0000FF;entryX=0.326;entryY=-0.053;entryDx=0;entryDy=0;entryPerimeter=0;fillColor=#0050ef;strokeColor=#001DBC;" parent="1" source="98" target="30" edge="1">
                    <mxGeometry relative="1" as="geometry">
                        <Array as="points">
                            <mxPoint x="-210" y="270"/>
                        </Array>
                    </mxGeometry>
                </mxCell>
                <mxCell id="98" value="&lt;b&gt;docker linux Image&lt;/b&gt;" style="sketch=0;aspect=fixed;html=1;points=[];align=center;image;fontSize=12;image=img/lib/mscae/VM_Linux.svg;labelBackgroundColor=#FFFFFF;strokeColor=#FFFFFF;fontColor=#0000FF;" parent="1" vertex="1">
                    <mxGeometry x="-354" y="144.6" width="40" height="36.8" as="geometry"/>
                </mxCell>
                <mxCell id="108" value="" style="endArrow=classic;startArrow=classic;html=1;strokeWidth=4;exitX=0.639;exitY=0.032;exitDx=0;exitDy=0;exitPerimeter=0;fillColor=#0050ef;strokeColor=#001DBC;" parent="1" source="31" edge="1">
                    <mxGeometry width="50" height="50" relative="1" as="geometry">
                        <mxPoint x="1.7000000000000455" y="321.40779" as="sourcePoint"/>
                        <mxPoint x="-173" y="345" as="targetPoint"/>
                        <Array as="points">
                            <mxPoint x="-173" y="391"/>
                        </Array>
                    </mxGeometry>
                </mxCell>
                <mxCell id="119" value="" style="edgeStyle=elbowEdgeStyle;rounded=0;elbow=vertical;html=1;labelBackgroundColor=#ffffff;startArrow=classic;startFill=1;startSize=6;endArrow=classic;endFill=1;endSize=6;jettySize=auto;orthogonalLoop=1;strokeWidth=4;fontSize=14;fontColor=#000000;exitX=0.62;exitY=-0.108;exitDx=0;exitDy=0;exitPerimeter=0;fillColor=#0050ef;strokeColor=#001DBC;" parent="1" source="98" edge="1">
                    <mxGeometry width="60" height="60" relative="1" as="geometry">
                        <mxPoint x="-120" y="210" as="sourcePoint"/>
                        <mxPoint x="268" y="45" as="targetPoint"/>
                        <Array as="points">
                            <mxPoint x="-250" y="-120"/>
                            <mxPoint x="-240" y="-170"/>
                            <mxPoint x="70" y="-180"/>
                            <mxPoint x="270" y="50"/>
                            <mxPoint x="60" y="120"/>
                        </Array>
                    </mxGeometry>
                </mxCell>
                <mxCell id="121" value="&lt;b&gt;&lt;font color=&quot;#0000ff&quot;&gt;Hardware CI builds&lt;/font&gt;&lt;/b&gt;" style="outlineConnect=0;dashed=0;verticalLabelPosition=bottom;verticalAlign=top;align=center;html=1;shape=mxgraph.aws3.codebuild;fillColor=#759C3E;gradientColor=none;labelBackgroundColor=#FFFFFF;strokeColor=#FFFFFF;fontColor=#000000;" parent="1" vertex="1">
                    <mxGeometry x="24" y="-70" width="40" height="50" as="geometry"/>
                </mxCell>
                <mxCell id="125" value="" style="edgeStyle=elbowEdgeStyle;rounded=0;elbow=vertical;html=1;labelBackgroundColor=#ffffff;startArrow=classic;startFill=1;startSize=6;endArrow=classic;endFill=1;endSize=6;jettySize=auto;orthogonalLoop=1;strokeWidth=4;fontSize=14;fontColor=#000000;fillColor=#0050ef;strokeColor=#001DBC;entryX=0.329;entryY=-0.031;entryDx=0;entryDy=0;entryPerimeter=0;" parent="1" source="93" target="3" edge="1">
                    <mxGeometry width="60" height="60" relative="1" as="geometry">
                        <mxPoint x="130" y="175.95" as="sourcePoint"/>
                        <mxPoint x="320" y="-40" as="targetPoint"/>
                        <Array as="points">
                            <mxPoint x="192" y="12"/>
                            <mxPoint x="50" y="10"/>
                            <mxPoint x="-20" y="40"/>
                            <mxPoint x="210" y="70"/>
                            <mxPoint x="380" y="60"/>
                            <mxPoint x="160" y="60"/>
                            <mxPoint x="110" y="10"/>
                            <mxPoint y="40"/>
                            <mxPoint x="340" y="130"/>
                            <mxPoint x="390" y="-70"/>
                            <mxPoint x="420" y="80"/>
                            <mxPoint x="370" y="90"/>
                            <mxPoint x="410" y="150"/>
                            <mxPoint x="460" y="200"/>
                            <mxPoint x="210" y="190"/>
                            <mxPoint x="340" y="215.95"/>
                        </Array>
                    </mxGeometry>
                </mxCell>
                <mxCell id="132" value="&lt;b&gt;CI Unit/System/Integration&lt;/b&gt;" style="aspect=fixed;html=1;points=[];align=center;image;fontSize=12;image=img/lib/azure2/general/Load_Test.svg;labelBackgroundColor=#FFFFFF;strokeColor=#FFFFFF;fontColor=#0000FF;" parent="1" vertex="1">
                    <mxGeometry x="39" y="-180" width="30.91" height="30" as="geometry"/>
                </mxCell>
                <mxCell id="135" value="&lt;b&gt;CI Unit/System/Integration&lt;/b&gt;" style="aspect=fixed;html=1;points=[];align=center;image;fontSize=12;image=img/lib/azure2/general/Load_Test.svg;labelBackgroundColor=#FFFFFF;strokeColor=#FFFFFF;fontColor=#0000FF;" parent="1" vertex="1">
                    <mxGeometry x="156.78999999999996" y="-60" width="41.21" height="40" as="geometry"/>
                </mxCell>
                <mxCell id="140" value="&lt;b style=&quot;background-color: rgb(0, 0, 255);&quot;&gt;git fetch&lt;/b&gt;" style="text;html=1;align=center;verticalAlign=middle;resizable=0;points=[];autosize=1;strokeColor=#001DBC;fillColor=#0050ef;fontColor=#ffffff;" parent="1" vertex="1">
                    <mxGeometry x="350" y="200" width="65" height="26" as="geometry"/>
                </mxCell>
                <mxCell id="156" style="edgeStyle=none;html=1;entryX=0.742;entryY=0.231;entryDx=0;entryDy=0;entryPerimeter=0;strokeColor=#0000FF;strokeWidth=5;" parent="1" source="146" target="57" edge="1">
                    <mxGeometry relative="1" as="geometry"/>
                </mxCell>
                <mxCell id="157" style="edgeStyle=none;html=1;strokeColor=#0000FF;strokeWidth=5;" parent="1" source="146" edge="1">
                    <mxGeometry relative="1" as="geometry">
                        <mxPoint x="-55.377655029296875" y="57.23735809326172" as="targetPoint"/>
                    </mxGeometry>
                </mxCell>
                <mxCell id="146" value="&lt;b&gt;Same Hardware board&lt;br&gt;connected to local and CI&lt;/b&gt;" style="text;html=1;align=center;verticalAlign=middle;resizable=0;points=[];autosize=1;strokeColor=none;fillColor=none;fontColor=#0000FF;labelBackgroundColor=#FFFFFF;" parent="1" vertex="1">
                    <mxGeometry x="-65" y="137" width="170" height="40" as="geometry"/>
                </mxCell>
                <mxCell id="149" value="" style="endArrow=classic;startArrow=none;html=1;strokeWidth=4;fontColor=#0000FF;elbow=vertical;exitX=1.043;exitY=0.44;exitDx=0;exitDy=0;exitPerimeter=0;entryX=-0.003;entryY=0.755;entryDx=0;entryDy=0;entryPerimeter=0;fillColor=#0050ef;strokeColor=#001DBC;" parent="1" source="148" target="57" edge="1">
                    <mxGeometry width="50" height="50" relative="1" as="geometry">
                        <mxPoint x="20" y="260" as="sourcePoint"/>
                        <mxPoint x="-90" y="240" as="targetPoint"/>
                        <Array as="points"/>
                    </mxGeometry>
                </mxCell>
                <mxCell id="151" value="" style="endArrow=none;startArrow=classic;html=1;strokeWidth=4;fontColor=#0000FF;elbow=vertical;exitX=1.043;exitY=0.44;exitDx=0;exitDy=0;exitPerimeter=0;entryX=-0.003;entryY=0.755;entryDx=0;entryDy=0;entryPerimeter=0;fillColor=#0050ef;strokeColor=#001DBC;" parent="1" source="98" target="148" edge="1">
                    <mxGeometry width="50" height="50" relative="1" as="geometry">
                        <mxPoint x="-258.28" y="187.79199999999992" as="sourcePoint"/>
                        <mxPoint x="-20.089999999999918" y="331.5499500000001" as="targetPoint"/>
                        <Array as="points"/>
                    </mxGeometry>
                </mxCell>
                <mxCell id="148" value="&lt;b&gt;docker pull image&lt;/b&gt;" style="text;html=1;align=center;verticalAlign=middle;resizable=0;points=[];autosize=1;strokeColor=none;fillColor=none;fontColor=#0000FF;labelBackgroundColor=#FFFFFF;" parent="1" vertex="1">
                    <mxGeometry x="-270" y="73" width="130" height="30" as="geometry"/>
                </mxCell>
                <mxCell id="169" value="&lt;b style=&quot;background-color: rgb(0, 0, 255);&quot;&gt;QEMU&lt;/b&gt;" style="rounded=0;whiteSpace=wrap;html=1;fontColor=#FFFFFF;fillColor=#0000FF;" vertex="1" parent="1">
                    <mxGeometry x="-301" y="437" width="80" height="40" as="geometry"/>
                </mxCell>
                <mxCell id="172" value="" style="endArrow=classic;startArrow=classic;html=1;strokeWidth=4;fillColor=#0050ef;strokeColor=#001DBC;" edge="1" parent="1" source="169">
                    <mxGeometry width="50" height="50" relative="1" as="geometry">
                        <mxPoint x="-139.88" y="435.28" as="sourcePoint"/>
                        <mxPoint x="-204" y="341" as="targetPoint"/>
                        <Array as="points">
                            <mxPoint x="-247" y="430"/>
                        </Array>
                    </mxGeometry>
                </mxCell>
            </root>
        </mxGraphModel>
    </diagram>
</mxfile>